<svg width="120" height="42" viewBox="0 0 120 42" fill="none" xmlns="http://www.w3.org/2000/svg">
<g clip-path="url(#clip0_593_60194)">
<path d="M3.41016 0.453125L116.762 0.652344C118.348 0.652344 119.762 0.417969 119.762 3.81641L119.621 41.1445H0.546875V3.67578C0.546875 2 0.710938 0.453125 3.41016 0.453125Z" fill="#AAB2AB"/>
<path d="M117.754 0H2.24609C1.00781 0 0 1.00781 0 2.24609V41.4922C0 41.7734 0.226563 42 0.507813 42H119.492C119.773 42 120 41.7734 120 41.4922V2.24609C120 1.00781 118.992 0 117.754 0ZM2.24609 1.01562H117.754C118.434 1.01562 118.984 1.56641 118.984 2.24609C118.984 2.24609 118.984 18.043 118.984 29.4688H36.4297C33.4023 34.9375 27.5703 38.6523 20.8828 38.6523C14.1875 38.6523 8.35938 34.9414 5.33594 29.4688H1.01562C1.01562 18.043 1.01562 2.24609 1.01562 2.24609C1.01562 1.56641 1.56641 1.01562 2.24609 1.01562Z" fill="black"/>
<path d="M34.5234 19.5508C34.5274 27.082 28.4258 33.1875 20.8945 33.1914C13.3672 33.1992 7.25782 27.0977 7.25391 19.5664C7.25391 19.5625 7.25391 19.5586 7.25391 19.5508C7.2461 12.0234 13.3477 5.91407 20.8789 5.91016C28.4102 5.90625 34.5195 12.0039 34.5234 19.5352C34.5234 19.5391 34.5234 19.5469 34.5234 19.5508Z" fill="white"/>
<path d="M31.9727 8.44531C34.9961 11.4688 36.5078 15.1719 36.5078 19.5508C36.5078 23.9297 35.0195 27.5938 32.0508 30.5391C28.8945 33.6406 25.168 35.1914 20.8672 35.1914C16.6172 35.1914 12.957 33.6523 9.88281 30.5781C6.80469 27.5039 5.26953 23.8281 5.26953 19.5508C5.26953 15.2773 6.80469 11.5742 9.88281 8.44531C12.8789 5.42188 16.5391 3.91016 20.8672 3.91016C25.2461 3.91016 28.9492 5.42188 31.9727 8.44531ZM11.918 10.4805C9.35938 13.0625 8.08203 16.0859 8.08203 19.5547C8.08203 23.0234 9.34766 26.0234 11.875 28.5508C14.4062 31.082 17.418 32.3438 20.9141 32.3438C24.4102 32.3438 27.4453 31.0664 30.0273 28.5117C32.4805 26.1406 33.707 23.1523 33.707 19.5547C33.707 15.9844 32.4609 12.9531 29.9688 10.4609C27.4766 7.97266 24.4609 6.72656 20.9141 6.72656C17.3672 6.72656 14.3672 7.97656 11.918 10.4805ZM18.6445 18.0312C18.2539 17.1797 17.668 16.7539 16.8867 16.7539C15.5117 16.7539 14.8203 17.6797 14.8203 19.5352C14.8203 21.3906 15.5117 22.3203 16.8867 22.3203C17.7969 22.3203 18.4492 21.8672 18.8398 20.9609L20.75 21.9805C19.8398 23.5977 18.4727 24.4062 16.6523 24.4062C15.2461 24.4062 14.1211 23.9766 13.2734 23.1133C12.4297 22.2539 12.0039 21.0664 12.0039 19.5508C12.0039 18.0625 12.4414 16.8828 13.3125 16.0078C14.1836 15.1328 15.2734 14.6953 16.5742 14.6953C18.5 14.6953 19.8789 15.4531 20.7109 16.9727L18.6445 18.0312ZM27.6328 18.0312C27.2422 17.1797 26.668 16.7539 25.9141 16.7539C24.5078 16.7539 23.8047 17.6797 23.8047 19.5352C23.8047 21.3906 24.5078 22.3203 25.9141 22.3203C26.8281 22.3203 27.4648 21.8672 27.8281 20.9609L29.7812 21.9805C28.8711 23.5977 27.5078 24.4062 25.6914 24.4062C24.2852 24.4062 23.1641 23.9766 22.3164 23.1133C21.4766 22.2539 21.0508 21.0664 21.0508 19.5508C21.0508 18.0625 21.4805 16.8828 22.3398 16.0078C23.1953 15.1328 24.2852 14.6953 25.6133 14.6953C27.5352 14.6953 28.9102 15.4531 29.7422 16.9727L27.6328 18.0312Z" fill="black"/>
<path d="M62.5039 15.2227C62.5039 21.1523 57.6953 25.9609 51.7617 25.9609C45.832 25.9609 41.0234 21.1523 41.0234 15.2227C41.0234 9.29297 45.832 4.48438 51.7617 4.48438C57.6953 4.48438 62.5039 9.29297 62.5039 15.2227Z" fill="white"/>
<path d="M54.8711 12.1172C54.8711 11.7031 54.5352 11.3672 54.1211 11.3672H49.3789C48.9648 11.3672 48.6289 11.7031 48.6289 12.1172V16.8594H49.9531V22.4766H53.5469V16.8594H54.8711V12.1172Z" fill="black"/>
<path d="M53.3711 9.12109C53.3711 10.0156 52.6484 10.7422 51.75 10.7422C50.8555 10.7422 50.1289 10.0156 50.1289 9.12109C50.1289 8.22656 50.8555 7.5 51.75 7.5C52.6484 7.5 53.3711 8.22656 53.3711 9.12109Z" fill="black"/>
<path fill-rule="evenodd" clip-rule="evenodd" d="M51.7344 3.39062C48.5234 3.39062 45.8047 4.51172 43.5781 6.75391C41.2969 9.07422 40.1562 11.8164 40.1562 14.9883C40.1562 18.1562 41.2969 20.8828 43.5781 23.1602C45.8633 25.4414 48.582 26.582 51.7344 26.582C54.9297 26.582 57.6953 25.4336 60.0391 23.1328C62.2461 20.9492 63.3477 18.2344 63.3477 14.9883C63.3477 11.7383 62.2266 8.99609 59.9805 6.75391C57.7344 4.51172 54.9883 3.39062 51.7344 3.39062ZM51.7656 5.48047C54.3984 5.48047 56.6328 6.40625 58.4688 8.26172C60.3281 10.0977 61.2578 12.3398 61.2578 14.9883C61.2578 17.6523 60.3477 19.8672 58.5273 21.625C56.6133 23.5195 54.3594 24.4648 51.7656 24.4648C49.1719 24.4648 46.9375 23.5273 45.0586 21.6523C43.1836 19.7812 42.2461 17.5586 42.2461 14.9883C42.2461 12.418 43.1914 10.1758 45.0898 8.26172C46.9102 6.40625 49.1328 5.48047 51.7656 5.48047Z" fill="black"/>
<path d="M48.4023 32.7461C48.7148 32.7461 49.0039 32.7773 49.2656 32.832C49.5234 32.8867 49.75 32.9766 49.9336 33.1055C50.1211 33.2305 50.2617 33.3984 50.3672 33.6094C50.4687 33.8203 50.5195 34.0781 50.5195 34.3867C50.5195 34.7227 50.4453 35 50.293 35.2227C50.1406 35.4453 49.9141 35.625 49.6172 35.7695C50.0273 35.8867 50.332 36.0937 50.5352 36.3867C50.7383 36.6797 50.8398 37.0352 50.8398 37.4492C50.8398 37.7812 50.7734 38.0703 50.6445 38.3164C50.5117 38.5586 50.3359 38.7617 50.1172 38.9141C49.8984 39.0703 49.6445 39.1836 49.3633 39.2578C49.082 39.332 48.793 39.3711 48.4961 39.3711H45.2773V32.7461H48.4023ZM48.2148 35.4258C48.4766 35.4258 48.6875 35.3633 48.8555 35.2422C49.0234 35.1172 49.1055 34.918 49.1055 34.6406C49.1055 34.4844 49.0781 34.3594 49.0234 34.2617C48.9687 34.1602 48.8945 34.0859 48.8008 34.0273C48.707 33.9727 48.6016 33.9336 48.4805 33.9141C48.3594 33.8906 48.2344 33.8789 48.1016 33.8789H46.7383V35.4258H48.2148ZM48.3008 38.2344C48.4414 38.2344 48.5781 38.2227 48.707 38.1953C48.8398 38.168 48.9531 38.1211 49.0547 38.0547C49.1523 37.9922 49.2305 37.9023 49.2891 37.7891C49.3477 37.6797 49.3789 37.5391 49.3789 37.3633C49.3789 37.0234 49.2812 36.7812 49.0898 36.6367C48.8984 36.4922 48.6445 36.418 48.3281 36.418H46.7383V38.2344H48.3008Z" fill="white"/>
<path d="M51.0938 32.7461H52.7266L54.2773 35.3633L55.8203 32.7461H57.4453L54.9844 36.8281V39.3711H53.5234V36.7891L51.0938 32.7461Z" fill="white"/>
<path d="M98.4416 37.7305C98.5197 37.8867 98.6251 38.0117 98.7619 38.1094C98.8947 38.2031 99.047 38.2734 99.2267 38.3203C99.4064 38.3672 99.59 38.3906 99.7814 38.3906C99.9103 38.3906 100.051 38.3789 100.199 38.3594C100.348 38.3359 100.485 38.2969 100.617 38.2344C100.746 38.1719 100.852 38.0859 100.942 37.9766C101.024 37.8711 101.07 37.7305 101.07 37.5664C101.07 37.3867 101.012 37.2422 100.899 37.1289C100.785 37.0195 100.633 36.9258 100.449 36.8516C100.262 36.7773 100.051 36.7109 99.8205 36.6562C99.5822 36.6016 99.3478 36.5391 99.1056 36.4727C98.8595 36.4102 98.6173 36.332 98.383 36.2422C98.1486 36.1562 97.9376 36.0391 97.7541 35.8945C97.5666 35.7539 97.4181 35.5742 97.3048 35.3633C97.1916 35.1484 97.133 34.8906 97.133 34.5898C97.133 34.2461 97.2072 33.9531 97.3517 33.7031C97.4962 33.4531 97.6837 33.2422 97.9181 33.0742C98.1525 32.9102 98.422 32.7852 98.7189 32.7031C99.0119 32.625 99.3087 32.5859 99.6056 32.5859C99.9533 32.5859 100.285 32.625 100.602 32.6992C100.922 32.7773 101.203 32.9023 101.449 33.0781C101.699 33.25 101.895 33.4727 102.039 33.7383C102.184 34.0117 102.258 34.3359 102.258 34.7188H100.844C100.832 34.5195 100.789 34.3555 100.719 34.2266C100.649 34.0977 100.555 33.9961 100.438 33.9219C100.32 33.8477 100.188 33.793 100.035 33.7656C99.8869 33.7344 99.7189 33.7188 99.5431 33.7188C99.4259 33.7188 99.3087 33.7305 99.1916 33.7539C99.0744 33.7813 98.9689 33.8242 98.8751 33.8828C98.7775 33.9453 98.6994 34.0234 98.6369 34.1172C98.5783 34.2109 98.547 34.3281 98.547 34.4688C98.547 34.5977 98.5705 34.7031 98.6173 34.7852C98.6681 34.8633 98.7658 34.9414 98.9103 35.0078C99.0587 35.0742 99.258 35.1445 99.5119 35.2109C99.7697 35.2773 100.106 35.3672 100.52 35.4727C100.641 35.4961 100.813 35.543 101.031 35.6055C101.25 35.6719 101.469 35.7734 101.684 35.918C101.902 36.0586 102.086 36.25 102.246 36.4883C102.402 36.7266 102.481 37.0312 102.481 37.4023C102.481 37.7031 102.422 37.9844 102.305 38.2461C102.188 38.5039 102.012 38.7305 101.781 38.918C101.551 39.1055 101.262 39.2539 100.918 39.3594C100.574 39.4648 100.18 39.5156 99.7267 39.5156C99.3634 39.5156 99.008 39.4727 98.6642 39.3828C98.3205 39.293 98.0197 39.1523 97.758 38.957C97.4923 38.7656 97.2853 38.5195 97.1291 38.2227C96.9767 37.9258 96.9025 37.5742 96.9064 37.168H98.3205C98.3205 37.3906 98.3595 37.5781 98.4416 37.7305Z" fill="white"/>
<path d="M106.645 32.7461L109.121 39.3711H107.609L107.109 37.8945H104.633L104.113 39.3711H102.648L105.152 32.7461H106.645ZM106.73 36.8086L105.895 34.3789H105.875L105.016 36.8086H106.73Z" fill="white"/>
<path d="M72.5195 32.7461L75.2852 37.1914H75.3008V32.7461H76.668V39.3711H75.2109L72.4531 34.9375H72.4336V39.3711H71.0703V32.7461H72.5195Z" fill="white"/>
<path d="M82.1953 34.5117C82.1094 34.3711 82 34.25 81.8711 34.1445C81.7422 34.0391 81.5937 33.957 81.4297 33.8984C81.2656 33.8398 81.0937 33.8125 80.9141 33.8125C80.5859 33.8125 80.3086 33.875 80.0781 34C79.8516 34.1289 79.6641 34.2969 79.5234 34.5117C79.3828 34.7227 79.2773 34.9648 79.2109 35.2383C79.1484 35.5117 79.1133 35.793 79.1133 36.082C79.1133 36.3594 79.1484 36.6328 79.2109 36.8945C79.2773 37.1562 79.3828 37.3945 79.5234 37.6016C79.6641 37.8125 79.8516 37.9805 80.0781 38.1094C80.3086 38.2344 80.5859 38.2969 80.9141 38.2969C81.3594 38.2969 81.707 38.1641 81.957 37.8906C82.2109 37.6172 82.3633 37.2578 82.418 36.8125H83.8281C83.793 37.2266 83.6953 37.6016 83.5391 37.9375C83.3867 38.2695 83.1797 38.5547 82.9297 38.7891C82.6758 39.0273 82.3789 39.207 82.0391 39.332C81.6992 39.4531 81.3242 39.5156 80.9141 39.5156C80.4062 39.5156 79.9531 39.4297 79.5469 39.25C79.1406 39.0781 78.8008 38.832 78.5195 38.5234C78.2422 38.2148 78.0273 37.8516 77.8789 37.4336C77.7305 37.0156 77.6562 36.5664 77.6562 36.082C77.6562 35.5859 77.7305 35.1289 77.8789 34.7031C78.0273 34.2812 78.2422 33.9102 78.5195 33.5938C78.8008 33.2812 79.1406 33.0312 79.5469 32.8516C79.9531 32.6719 80.4062 32.5859 80.9141 32.5859C81.2812 32.5859 81.625 32.6367 81.9492 32.7422C82.2734 32.8477 82.5664 33 82.8203 33.2031C83.0781 33.4023 83.2891 33.6523 83.457 33.9492C83.625 34.2461 83.7305 34.5859 83.7734 34.9688H82.3633C82.3359 34.8047 82.2812 34.6484 82.1953 34.5117Z" fill="white"/>
<path d="M114.578 14.9805C114.586 20.8242 109.848 25.5664 104.004 25.5742C98.1563 25.5742 93.4141 20.8438 93.4102 14.9961C93.4102 14.9922 93.4102 14.9844 93.4102 14.9805C93.4063 9.13673 98.1406 4.39454 103.988 4.39063C109.832 4.38282 114.574 9.1211 114.578 14.9649C114.578 14.9688 114.578 14.9766 114.578 14.9805Z" fill="white"/>
<path d="M103.918 3.38672C100.707 3.38672 97.9883 4.50781 95.7617 6.74609C93.4805 9.06641 92.3359 11.8125 92.3359 14.9805C92.3359 18.1484 93.4805 20.875 95.7617 23.1562C98.0469 25.4375 100.766 26.5742 103.918 26.5742C107.113 26.5742 109.879 25.4258 112.219 23.125C114.426 20.9414 115.531 18.2266 115.531 14.9805C115.531 11.7344 114.406 8.98828 112.164 6.74609C109.918 4.50781 107.172 3.38672 103.918 3.38672ZM103.949 5.47266C106.578 5.47266 108.812 6.39844 110.652 8.25781C112.512 10.0898 113.438 12.332 113.438 14.9805C113.438 17.6484 112.531 19.8594 110.711 21.6211C108.797 23.5117 106.539 24.4609 103.949 24.4609C101.355 24.4609 99.1211 23.5234 97.2422 21.6484C95.3672 19.7734 94.4258 17.5508 94.4258 14.9805C94.4258 12.4102 95.375 10.168 97.2734 8.25781C99.0898 6.39844 101.316 5.47266 103.949 5.47266Z" fill="black"/>
<path d="M98.7773 13.3437C99.2422 10.4258 101.293 8.86719 103.871 8.86719C107.57 8.86719 109.828 11.5547 109.828 15.1367C109.828 18.6289 107.426 21.3437 103.812 21.3437C101.324 21.3437 99.0977 19.8164 98.6914 16.8086H101.613C101.699 18.3711 102.711 18.918 104.16 18.918C105.805 18.918 106.879 17.3867 106.879 15.0469C106.879 12.5937 105.953 11.293 104.215 11.293C102.945 11.293 101.844 11.7578 101.613 13.3437L102.461 13.3398L100.164 15.6367L97.8633 13.3398L98.7773 13.3437Z" fill="black"/>
<path d="M88.6289 14.9805C88.6328 20.9375 83.8086 25.7695 77.8516 25.7734C71.8945 25.7773 67.0586 20.9531 67.0547 14.9961C67.0547 14.9922 67.0547 14.9844 67.0547 14.9805C67.0508 9.02344 71.8789 4.19141 77.8359 4.1875C83.793 4.1836 88.625 9.00781 88.6289 14.9648C88.6289 14.9688 88.6289 14.9766 88.6289 14.9805Z" fill="white"/>
<path d="M77.8281 3.38672C81.0781 3.38672 83.8242 4.50781 86.0703 6.74609C88.3164 8.98828 89.4375 11.7344 89.4375 14.9805C89.4375 18.2266 88.3359 20.9414 86.1289 23.125C83.7891 25.4258 81.0195 26.5742 77.8281 26.5742C74.6719 26.5742 71.9531 25.4375 69.6719 23.1562C67.3867 20.875 66.2461 18.1484 66.2461 14.9805C66.2461 11.8125 67.3867 9.06641 69.6719 6.74609C71.8984 4.50781 74.6133 3.38672 77.8281 3.38672ZM68.8555 11.8672C68.5078 12.8438 68.3359 13.8828 68.3359 14.9805C68.3359 17.5508 69.2734 19.7734 71.1523 21.6484C73.0273 23.5234 75.2617 24.4609 77.8555 24.4609C80.4492 24.4609 82.7031 23.5117 84.6211 21.6172C85.2617 21 85.7891 20.3242 86.2031 19.5898L81.832 17.6445C81.5352 19.1133 80.2266 20.1094 78.6406 20.2266V22.0117H77.3086V20.2266C76.0078 20.2109 74.75 19.6758 73.7891 18.8359L75.3867 17.2266C76.1562 17.9492 76.9258 18.2734 77.9766 18.2734C78.6562 18.2734 79.4102 18.0078 79.4102 17.1211C79.4102 16.8086 79.2891 16.5898 79.0977 16.4258L77.9922 15.9336L76.6133 15.3203C75.9336 15.0156 75.3555 14.7617 74.7773 14.5039L68.8555 11.8672ZM77.8555 5.47266C75.2227 5.47266 73 6.39844 71.1797 8.25781C70.6836 8.75391 70.2539 9.27734 69.8906 9.82031L74.3203 11.7969C74.7227 10.5664 75.8906 9.82031 77.3086 9.73828V7.94922H78.6406V9.73828C79.5586 9.78125 80.5625 10.0312 81.5547 10.8008L80.0312 12.3672C79.4688 11.9688 78.7578 11.6875 78.0469 11.6875C77.4727 11.6875 76.6602 11.8633 76.6602 12.5859C76.6602 12.6992 76.6953 12.7969 76.7617 12.8828L78.2461 13.543L79.25 13.9883C79.8906 14.2734 80.5039 14.5469 81.1133 14.8164L87.0547 17.4648C87.25 16.6836 87.3477 15.8555 87.3477 14.9805C87.3477 12.332 86.418 10.0898 84.5625 8.25781C82.7227 6.39844 80.4883 5.47266 77.8555 5.47266Z" fill="black"/>
</g>
<defs>
<clipPath id="clip0_593_60194">
<rect width="120" height="42" fill="white"/>
</clipPath>
</defs>
</svg>
