<svg width="32" height="32" viewBox="0 0 32 32" fill="none" xmlns="http://www.w3.org/2000/svg">
<path d="M15.9998 2.66602C8.63984 2.66602 2.6665 8.63935 2.6665 15.9993C2.6665 23.3593 8.63984 29.3327 15.9998 29.3327C23.3598 29.3327 29.3332 23.3593 29.3332 15.9993C29.3332 8.63935 23.3598 2.66602 15.9998 2.66602ZM15.9998 26.666C10.1198 26.666 5.33317 21.8793 5.33317 15.9993C5.33317 10.1193 10.1198 5.33268 15.9998 5.33268C21.8798 5.33268 26.6665 10.1193 26.6665 15.9993C26.6665 21.8793 21.8798 26.666 15.9998 26.666ZM22.1198 10.106L13.3332 18.8927L9.87984 15.4527L7.99984 17.3327L13.3332 22.666L23.9998 11.9993L22.1198 10.106Z" fill="#426D6F"/>
</svg>
