<svg width="1712" height="323" viewBox="0 0 1712 323" fill="none" xmlns="http://www.w3.org/2000/svg">
<rect width="259" height="153.5" transform="translate(398.5)" fill="#FBB874"/>
<path d="M416.896 71.75V60.394H421.265C422.251 60.394 423.129 60.496 423.9 60.7C424.682 60.904 425.294 61.2723 425.736 61.805C426.189 62.3377 426.416 63.1027 426.416 64.1C426.416 65.086 426.189 65.851 425.736 66.395C425.294 66.9277 424.682 67.296 423.9 67.5C423.129 67.704 422.251 67.806 421.265 67.806H419.582V71.75H416.896ZM419.582 65.579H421.35C421.769 65.579 422.143 65.5393 422.472 65.46C422.812 65.3807 423.078 65.2333 423.271 65.018C423.475 64.8027 423.577 64.4967 423.577 64.1C423.577 63.7033 423.475 63.403 423.271 63.199C423.078 62.9837 422.812 62.842 422.472 62.774C422.143 62.6947 421.769 62.655 421.35 62.655H419.582V65.579ZM431.819 71.954C431.037 71.954 430.306 71.7953 429.626 71.478C428.946 71.1607 428.396 70.6733 427.977 70.016C427.557 69.3473 427.348 68.5087 427.348 67.5C427.348 66.48 427.557 65.647 427.977 65.001C428.396 64.3437 428.946 63.862 429.626 63.556C430.306 63.2387 431.037 63.08 431.819 63.08C432.589 63.08 433.315 63.2387 433.995 63.556C434.675 63.862 435.224 64.3437 435.644 65.001C436.063 65.647 436.273 66.48 436.273 67.5C436.273 68.5087 436.063 69.3473 435.644 70.016C435.224 70.6733 434.675 71.1607 433.995 71.478C433.315 71.7953 432.589 71.954 431.819 71.954ZM431.819 69.948C432.34 69.948 432.771 69.761 433.111 69.387C433.462 69.013 433.638 68.384 433.638 67.5C433.638 66.6047 433.456 65.9813 433.094 65.63C432.742 65.2673 432.317 65.086 431.819 65.086C431.309 65.086 430.872 65.2673 430.51 65.63C430.158 65.9813 429.983 66.6047 429.983 67.5C429.983 68.384 430.158 69.013 430.51 69.387C430.861 69.761 431.297 69.948 431.819 69.948ZM437.685 71.75V63.318H439.946L440.269 64.44C440.461 64.1227 440.779 63.8167 441.221 63.522C441.674 63.2273 442.224 63.08 442.87 63.08C443.958 63.08 444.7 63.386 445.097 63.998C445.505 64.5987 445.709 65.4713 445.709 66.616V71.75H443.125V67.262C443.125 66.8653 443.102 66.5027 443.057 66.174C443.011 65.8453 442.898 65.5847 442.717 65.392C442.547 65.188 442.252 65.086 441.833 65.086C441.289 65.086 440.892 65.2843 440.643 65.681C440.393 66.0663 440.269 66.6443 440.269 67.415V71.75H437.685ZM451.116 71.75C450.425 71.75 449.875 71.6933 449.467 71.58C449.059 71.4553 448.765 71.223 448.583 70.883C448.413 70.5317 448.328 70.0273 448.328 69.37V65.29H446.934V63.318H448.328V61.21H450.912V63.318H452.748V65.29H450.912V68.69C450.912 69.0867 450.986 69.3473 451.133 69.472C451.292 69.5853 451.581 69.642 452 69.642H452.748V71.75H451.116ZM457.079 71.954C456.331 71.954 455.741 71.818 455.311 71.546C454.891 71.2627 454.591 70.8547 454.41 70.322C454.24 69.7893 454.155 69.1433 454.155 68.384V63.318H456.739V68.027C456.739 68.7977 456.852 69.3133 457.079 69.574C457.317 69.8233 457.645 69.948 458.065 69.948C458.575 69.948 458.943 69.778 459.17 69.438C459.408 69.098 459.527 68.537 459.527 67.755V63.318H462.128V71.75H459.884L459.527 70.56C459.277 70.9793 458.966 71.3193 458.592 71.58C458.229 71.8293 457.725 71.954 457.079 71.954ZM466.465 71.954C465.932 71.954 465.445 71.852 465.003 71.648C464.561 71.444 464.21 71.1607 463.949 70.798C463.688 70.424 463.558 69.982 463.558 69.472C463.558 68.7807 463.796 68.231 464.272 67.823C464.759 67.415 465.422 67.109 466.261 66.905C467.1 66.701 468.063 66.5593 469.151 66.48C469.151 65.8793 469.055 65.4543 468.862 65.205C468.669 64.9557 468.295 64.831 467.74 64.831C467.389 64.831 467.077 64.916 466.805 65.086C466.544 65.2447 466.369 65.494 466.278 65.834L464.102 65.052C464.385 64.4853 464.856 64.015 465.513 63.641C466.182 63.267 466.998 63.08 467.961 63.08C469.162 63.08 470.086 63.3463 470.732 63.879C471.378 64.4117 471.701 65.3183 471.701 66.599V68.452C471.701 68.8147 471.712 69.2057 471.735 69.625C471.758 70.0443 471.792 70.441 471.837 70.815C471.882 71.189 471.933 71.5007 471.99 71.75H469.593L469.287 70.73C468.97 71.172 468.567 71.4893 468.08 71.682C467.604 71.8633 467.066 71.954 466.465 71.954ZM467.417 70.186C467.927 70.186 468.352 70.05 468.692 69.778C469.032 69.506 469.202 68.9847 469.202 68.214V68.01C468.307 68.0893 467.587 68.214 467.043 68.384C466.499 68.5427 466.227 68.843 466.227 69.285C466.227 69.557 466.34 69.778 466.567 69.948C466.794 70.1067 467.077 70.186 467.417 70.186ZM477.422 71.954C476.493 71.954 475.705 71.767 475.059 71.393C474.425 71.019 473.937 70.4977 473.597 69.829C473.269 69.149 473.104 68.367 473.104 67.483C473.104 66.599 473.286 65.8283 473.648 65.171C474.011 64.5023 474.515 63.9867 475.161 63.624C475.819 63.2613 476.572 63.08 477.422 63.08C477.91 63.08 478.391 63.148 478.867 63.284C479.355 63.42 479.802 63.6523 480.21 63.981C480.63 64.2983 480.97 64.7347 481.23 65.29L479.071 66.072C478.935 65.7093 478.731 65.4543 478.459 65.307C478.199 65.1597 477.904 65.086 477.575 65.086C477.269 65.086 476.975 65.1653 476.691 65.324C476.408 65.4713 476.176 65.7207 475.994 66.072C475.824 66.4233 475.739 66.8993 475.739 67.5C475.739 68.112 475.83 68.5993 476.011 68.962C476.193 69.3133 476.419 69.5683 476.691 69.727C476.975 69.8743 477.269 69.948 477.575 69.948C477.938 69.948 478.244 69.88 478.493 69.744C478.743 69.5967 478.941 69.3983 479.088 69.149L481.196 69.914C480.913 70.424 480.562 70.832 480.142 71.138C479.723 71.4327 479.275 71.6423 478.799 71.767C478.335 71.8917 477.876 71.954 477.422 71.954ZM477.031 74.929C476.759 74.929 476.493 74.9063 476.232 74.861C475.983 74.827 475.751 74.776 475.535 74.708L475.807 73.858C475.898 73.9033 476.04 73.9487 476.232 73.994C476.436 74.0507 476.64 74.079 476.844 74.079C477.048 74.079 477.224 74.045 477.371 73.977C477.519 73.909 477.592 73.79 477.592 73.62C477.592 73.484 477.536 73.3763 477.422 73.297C477.309 73.2177 477.156 73.178 476.963 73.178C476.827 73.178 476.674 73.2063 476.504 73.263C476.402 73.297 476.306 73.2857 476.215 73.229C476.136 73.1837 476.079 73.11 476.045 73.008C476.023 72.9173 476.034 72.8323 476.079 72.753L476.963 71.325L477.66 71.75L477.15 72.566C477.309 72.532 477.502 72.515 477.728 72.515C477.944 72.515 478.165 72.549 478.391 72.617C478.618 72.685 478.805 72.7927 478.952 72.94C479.111 73.0987 479.19 73.3083 479.19 73.569C479.19 73.8977 479.083 74.1583 478.867 74.351C478.663 74.555 478.397 74.7023 478.068 74.793C477.74 74.8837 477.394 74.929 477.031 74.929ZM484.993 71.954C484.461 71.954 483.973 71.852 483.531 71.648C483.089 71.444 482.738 71.1607 482.477 70.798C482.217 70.424 482.086 69.982 482.086 69.472C482.086 68.7807 482.324 68.231 482.8 67.823C483.288 67.415 483.951 67.109 484.789 66.905C485.628 66.701 486.591 66.5593 487.679 66.48C487.679 65.8793 487.583 65.4543 487.39 65.205C487.198 64.9557 486.824 64.831 486.268 64.831C485.917 64.831 485.605 64.916 485.333 65.086C485.073 65.2447 484.897 65.494 484.806 65.834L482.63 65.052C482.914 64.4853 483.384 64.015 484.041 63.641C484.71 63.267 485.526 63.08 486.489 63.08C487.691 63.08 488.614 63.3463 489.26 63.879C489.906 64.4117 490.229 65.3183 490.229 66.599V68.452C490.229 68.8147 490.241 69.2057 490.263 69.625C490.286 70.0443 490.32 70.441 490.365 70.815C490.411 71.189 490.462 71.5007 490.518 71.75H488.121L487.815 70.73C487.498 71.172 487.096 71.4893 486.608 71.682C486.132 71.8633 485.594 71.954 484.993 71.954ZM485.945 70.186C486.455 70.186 486.88 70.05 487.22 69.778C487.56 69.506 487.73 68.9847 487.73 68.214V68.01C486.835 68.0893 486.115 68.214 485.571 68.384C485.027 68.5427 484.755 68.843 484.755 69.285C484.755 69.557 484.869 69.778 485.095 69.948C485.322 70.1067 485.605 70.186 485.945 70.186ZM487.764 62.077C487.322 62.077 486.92 61.9863 486.557 61.805C486.342 61.6917 486.172 61.601 486.047 61.533C485.923 61.465 485.781 61.431 485.622 61.431C485.441 61.431 485.282 61.482 485.146 61.584C485.01 61.6747 484.925 61.8107 484.891 61.992H483.378C483.48 61.3687 483.707 60.887 484.058 60.547C484.421 60.207 484.903 60.037 485.503 60.037C485.866 60.037 486.155 60.0937 486.37 60.207C486.597 60.3203 486.801 60.4393 486.982 60.564C487.175 60.6773 487.385 60.734 487.611 60.734C487.77 60.734 487.9 60.7057 488.002 60.649C488.116 60.581 488.229 60.4903 488.342 60.377C488.546 60.1503 488.75 60.037 488.954 60.037C489.17 60.037 489.34 60.105 489.464 60.241C489.6 60.3657 489.668 60.5243 489.668 60.717C489.668 60.9323 489.572 61.1477 489.379 61.363C489.198 61.567 488.96 61.737 488.665 61.873C488.382 62.009 488.082 62.077 487.764 62.077ZM495.971 71.954C495.189 71.954 494.458 71.7953 493.778 71.478C493.098 71.1607 492.548 70.6733 492.129 70.016C491.71 69.3473 491.5 68.5087 491.5 67.5C491.5 66.48 491.71 65.647 492.129 65.001C492.548 64.3437 493.098 63.862 493.778 63.556C494.458 63.2387 495.189 63.08 495.971 63.08C496.742 63.08 497.467 63.2387 498.147 63.556C498.827 63.862 499.377 64.3437 499.796 65.001C500.215 65.647 500.425 66.48 500.425 67.5C500.425 68.5087 500.215 69.3473 499.796 70.016C499.377 70.6733 498.827 71.1607 498.147 71.478C497.467 71.7953 496.742 71.954 495.971 71.954ZM495.971 69.948C496.492 69.948 496.923 69.761 497.263 69.387C497.614 69.013 497.79 68.384 497.79 67.5C497.79 66.6047 497.609 65.9813 497.246 65.63C496.895 65.2673 496.47 65.086 495.971 65.086C495.461 65.086 495.025 65.2673 494.662 65.63C494.311 65.9813 494.135 66.6047 494.135 67.5C494.135 68.384 494.311 69.013 494.662 69.387C495.013 69.761 495.45 69.948 495.971 69.948ZM510.986 71.75C510.294 71.75 509.745 71.6933 509.337 71.58C508.929 71.4553 508.634 71.223 508.453 70.883C508.283 70.5317 508.198 70.0273 508.198 69.37V65.29H506.804V63.318H508.198V61.21H510.782V63.318H512.618V65.29H510.782V68.69C510.782 69.0867 510.855 69.3473 511.003 69.472C511.161 69.5853 511.45 69.642 511.87 69.642H512.618V71.75H510.986ZM518.053 71.954C517.271 71.954 516.54 71.7953 515.86 71.478C515.18 71.1607 514.63 70.6733 514.211 70.016C513.792 69.3473 513.582 68.5087 513.582 67.5C513.582 66.48 513.792 65.647 514.211 65.001C514.63 64.3437 515.18 63.862 515.86 63.556C516.54 63.2387 517.271 63.08 518.053 63.08C518.824 63.08 519.549 63.2387 520.229 63.556C520.909 63.862 521.459 64.3437 521.878 65.001C522.297 65.647 522.507 66.48 522.507 67.5C522.507 68.5087 522.297 69.3473 521.878 70.016C521.459 70.6733 520.909 71.1607 520.229 71.478C519.549 71.7953 518.824 71.954 518.053 71.954ZM518.053 69.948C518.574 69.948 519.005 69.761 519.345 69.387C519.696 69.013 519.872 68.384 519.872 67.5C519.872 66.6047 519.691 65.9813 519.328 65.63C518.977 65.2673 518.552 65.086 518.053 65.086C517.543 65.086 517.107 65.2673 516.744 65.63C516.393 65.9813 516.217 66.6047 516.217 67.5C516.217 68.384 516.393 69.013 516.744 69.387C517.095 69.761 517.532 69.948 518.053 69.948ZM527.472 71.75C526.781 71.75 526.231 71.6933 525.823 71.58C525.415 71.4553 525.12 71.223 524.939 70.883C524.769 70.5317 524.684 70.0273 524.684 69.37V65.29H523.29V63.318H524.684V61.21H527.268V63.318H529.104V65.29H527.268V68.69C527.268 69.0867 527.342 69.3473 527.489 69.472C527.648 69.5853 527.937 69.642 528.356 69.642H529.104V71.75H527.472ZM532.975 71.954C532.443 71.954 531.955 71.852 531.513 71.648C531.071 71.444 530.72 71.1607 530.459 70.798C530.199 70.424 530.068 69.982 530.068 69.472C530.068 68.7807 530.306 68.231 530.782 67.823C531.27 67.415 531.933 67.109 532.771 66.905C533.61 66.701 534.573 66.5593 535.661 66.48C535.661 65.8793 535.565 65.4543 535.372 65.205C535.18 64.9557 534.806 64.831 534.25 64.831C533.899 64.831 533.587 64.916 533.315 65.086C533.055 65.2447 532.879 65.494 532.788 65.834L530.612 65.052C530.896 64.4853 531.366 64.015 532.023 63.641C532.692 63.267 533.508 63.08 534.471 63.08C535.673 63.08 536.596 63.3463 537.242 63.879C537.888 64.4117 538.211 65.3183 538.211 66.599V68.452C538.211 68.8147 538.223 69.2057 538.245 69.625C538.268 70.0443 538.302 70.441 538.347 70.815C538.393 71.189 538.444 71.5007 538.5 71.75H536.103L535.797 70.73C535.48 71.172 535.078 71.4893 534.59 71.682C534.114 71.8633 533.576 71.954 532.975 71.954ZM533.927 70.186C534.437 70.186 534.862 70.05 535.202 69.778C535.542 69.506 535.712 68.9847 535.712 68.214V68.01C534.817 68.0893 534.097 68.214 533.553 68.384C533.009 68.5427 532.737 68.843 532.737 69.285C532.737 69.557 532.851 69.778 533.077 69.948C533.304 70.1067 533.587 70.186 533.927 70.186ZM542.845 71.75C542.154 71.75 541.604 71.6933 541.196 71.58C540.788 71.4553 540.493 71.223 540.312 70.883C540.142 70.5317 540.057 70.0273 540.057 69.37V60.394H542.641V68.69C542.641 69.0867 542.72 69.3473 542.879 69.472C543.038 69.5853 543.332 69.642 543.763 69.642H544.494V71.75H542.845ZM554.429 71.954C553.704 71.954 553.058 71.7727 552.491 71.41C551.936 71.0473 551.499 70.5317 551.182 69.863C550.865 69.183 550.706 68.384 550.706 67.466C550.706 66.548 550.865 65.766 551.182 65.12C551.499 64.4627 551.936 63.9583 552.491 63.607C553.058 63.2557 553.704 63.08 554.429 63.08C554.894 63.08 555.37 63.199 555.857 63.437C556.344 63.6637 556.724 64.0093 556.996 64.474V60.394H559.58V68.452C559.58 68.8713 559.597 69.37 559.631 69.948C559.676 70.526 559.756 71.1267 559.869 71.75H557.404L557.064 70.611C556.713 71.0983 556.299 71.444 555.823 71.648C555.358 71.852 554.894 71.954 554.429 71.954ZM555.262 69.948C555.761 69.948 556.191 69.761 556.554 69.387C556.928 69.013 557.115 68.3897 557.115 67.517C557.115 66.6557 556.928 66.038 556.554 65.664C556.191 65.2787 555.761 65.086 555.262 65.086C554.752 65.086 554.31 65.29 553.936 65.698C553.573 66.106 553.392 66.6953 553.392 67.466C553.392 68.248 553.573 68.86 553.936 69.302C554.31 69.7327 554.752 69.948 555.262 69.948ZM565.607 71.954C564.7 71.954 563.896 71.7783 563.193 71.427C562.502 71.0643 561.958 70.5487 561.561 69.88C561.176 69.2113 560.983 68.4123 560.983 67.483C560.983 66.5877 561.187 65.8113 561.595 65.154C562.014 64.4967 562.564 63.9867 563.244 63.624C563.935 63.2613 564.689 63.08 565.505 63.08C566.434 63.08 567.228 63.301 567.885 63.743C568.554 64.1737 569.058 64.7743 569.398 65.545C569.738 66.3043 569.88 67.1827 569.823 68.18H563.584C563.629 68.7693 563.845 69.2113 564.23 69.506C564.627 69.8007 565.063 69.948 565.539 69.948C565.936 69.948 566.276 69.8913 566.559 69.778C566.854 69.6533 567.08 69.5003 567.239 69.319L569.296 70.067C568.854 70.713 568.299 71.189 567.63 71.495C566.973 71.801 566.298 71.954 565.607 71.954ZM563.584 66.65H567.426C567.415 66.106 567.228 65.698 566.865 65.426C566.502 65.1427 566.072 65.001 565.573 65.001C565.086 65.001 564.649 65.1313 564.264 65.392C563.89 65.6527 563.663 66.072 563.584 66.65ZM576.697 71.75V60.394H580.114L584.5 68.486V60.394H587.101V71.75H583.667L579.281 63.658V71.75H576.697ZM588.75 71.75V60.394H597.488V62.757H591.436V64.729H595.125V67.092H591.436V69.387H597.488V71.75H588.75ZM601.22 71.75L598.483 60.394H601.169L602.75 68.265L604.416 60.394H607.204L608.887 68.265L610.468 60.394H613.154L610.417 71.75H607.544L605.81 63.76L604.093 71.75H601.22ZM618.808 71.954C617.573 71.954 616.53 71.7047 615.68 71.206C614.842 70.696 614.247 69.9877 613.895 69.081L616.343 68.197C616.502 68.741 616.797 69.1433 617.227 69.404C617.669 69.6647 618.202 69.795 618.825 69.795C619.154 69.795 619.471 69.761 619.777 69.693C620.083 69.6137 620.338 69.489 620.542 69.319C620.746 69.1377 620.848 68.8997 620.848 68.605C620.848 68.2083 620.656 67.9023 620.27 67.687C619.885 67.4603 619.386 67.2903 618.774 67.177L617.397 66.905C616.785 66.7803 616.213 66.5933 615.68 66.344C615.159 66.0833 614.74 65.7433 614.422 65.324C614.105 64.8933 613.946 64.355 613.946 63.709C613.946 63.097 614.088 62.57 614.371 62.128C614.655 61.686 615.029 61.3233 615.493 61.04C615.969 60.7567 616.491 60.547 617.057 60.411C617.624 60.2637 618.191 60.19 618.757 60.19C619.369 60.19 619.959 60.275 620.525 60.445C621.103 60.615 621.619 60.8813 622.072 61.244C622.526 61.5953 622.871 62.0657 623.109 62.655L620.678 63.539C620.531 63.1537 620.265 62.859 619.879 62.655C619.505 62.451 619.052 62.349 618.519 62.349C617.998 62.349 617.562 62.4453 617.21 62.638C616.87 62.8193 616.7 63.0857 616.7 63.437C616.7 63.7203 616.819 63.964 617.057 64.168C617.295 64.372 617.607 64.5137 617.992 64.593L619.522 64.899C619.987 64.9897 620.457 65.1087 620.933 65.256C621.409 65.392 621.846 65.579 622.242 65.817C622.65 66.0437 622.979 66.3497 623.228 66.735C623.478 67.1203 623.602 67.6077 623.602 68.197C623.602 68.7977 623.461 69.336 623.177 69.812C622.905 70.2767 622.537 70.6677 622.072 70.985C621.619 71.3023 621.109 71.546 620.542 71.716C619.976 71.8747 619.398 71.954 618.808 71.954ZM630.319 71.75V69.625C631.815 68.571 633.005 67.6813 633.889 66.956C634.773 66.2193 635.408 65.5733 635.793 65.018C636.19 64.4627 636.388 63.9413 636.388 63.454C636.388 63.012 636.229 62.6777 635.912 62.451C635.606 62.2243 635.243 62.111 634.824 62.111C634.473 62.111 634.127 62.213 633.787 62.417C633.447 62.6097 633.215 62.9723 633.09 63.505L630.744 62.655C631.05 61.8617 631.577 61.2553 632.325 60.836C633.073 60.4053 633.946 60.19 634.943 60.19C635.714 60.19 636.405 60.3203 637.017 60.581C637.629 60.8303 638.111 61.2043 638.462 61.703C638.813 62.1903 638.989 62.791 638.989 63.505C638.989 64.6497 638.507 65.715 637.544 66.701C636.592 67.6757 635.283 68.6503 633.617 69.625H639.04V71.75H630.319ZM460.466 92.954C459.74 92.954 459.094 92.7727 458.528 92.41C457.972 92.0473 457.536 91.5317 457.219 90.863C456.901 90.183 456.743 89.384 456.743 88.466C456.743 87.548 456.901 86.766 457.219 86.12C457.536 85.4627 457.972 84.9583 458.528 84.607C459.094 84.2557 459.74 84.08 460.466 84.08C460.93 84.08 461.406 84.199 461.894 84.437C462.381 84.6637 462.761 85.0093 463.033 85.474V81.394H465.617V89.452C465.617 89.8713 465.634 90.37 465.668 90.948C465.713 91.526 465.792 92.1267 465.906 92.75H463.441L463.101 91.611C462.749 92.0983 462.336 92.444 461.86 92.648C461.395 92.852 460.93 92.954 460.466 92.954ZM461.299 90.948C461.797 90.948 462.228 90.761 462.591 90.387C462.965 90.013 463.152 89.3897 463.152 88.517C463.152 87.6557 462.965 87.038 462.591 86.664C462.228 86.2787 461.797 86.086 461.299 86.086C460.789 86.086 460.347 86.29 459.973 86.698C459.61 87.106 459.429 87.6953 459.429 88.466C459.429 89.248 459.61 89.86 459.973 90.302C460.347 90.7327 460.789 90.948 461.299 90.948ZM471.644 92.954C470.737 92.954 469.932 92.7783 469.23 92.427C468.538 92.0643 467.994 91.5487 467.598 90.88C467.212 90.2113 467.02 89.4123 467.02 88.483C467.02 87.5877 467.224 86.8113 467.632 86.154C468.051 85.4967 468.601 84.9867 469.281 84.624C469.972 84.2613 470.726 84.08 471.542 84.08C472.471 84.08 473.264 84.301 473.922 84.743C474.59 85.1737 475.095 85.7743 475.435 86.545C475.775 87.3043 475.916 88.1827 475.86 89.18H469.621C469.666 89.7693 469.881 90.2113 470.267 90.506C470.663 90.8007 471.1 90.948 471.576 90.948C471.972 90.948 472.312 90.8913 472.596 90.778C472.89 90.6533 473.117 90.5003 473.276 90.319L475.333 91.067C474.891 91.713 474.335 92.189 473.667 92.495C473.009 92.801 472.335 92.954 471.644 92.954ZM469.621 87.65H473.463C473.451 87.106 473.264 86.698 472.902 86.426C472.539 86.1427 472.108 86.001 471.61 86.001C471.122 86.001 470.686 86.1313 470.301 86.392C469.927 86.6527 469.7 87.072 469.621 87.65ZM486.712 92.954C485.783 92.954 484.995 92.767 484.349 92.393C483.714 92.019 483.227 91.4977 482.887 90.829C482.558 90.149 482.394 89.367 482.394 88.483C482.394 87.599 482.575 86.8283 482.938 86.171C483.301 85.5023 483.805 84.9867 484.451 84.624C485.108 84.2613 485.862 84.08 486.712 84.08C487.199 84.08 487.681 84.148 488.157 84.284C488.644 84.42 489.092 84.6523 489.5 84.981C489.919 85.2983 490.259 85.7347 490.52 86.29L488.361 87.072C488.225 86.7093 488.021 86.4543 487.749 86.307C487.488 86.1597 487.194 86.086 486.865 86.086C486.559 86.086 486.264 86.1653 485.981 86.324C485.698 86.4713 485.465 86.7207 485.284 87.072C485.114 87.4233 485.029 87.8993 485.029 88.5C485.029 89.112 485.12 89.5993 485.301 89.962C485.482 90.3133 485.709 90.5683 485.981 90.727C486.264 90.8743 486.559 90.948 486.865 90.948C487.228 90.948 487.534 90.88 487.783 90.744C488.032 90.5967 488.231 90.3983 488.378 90.149L490.486 90.914C490.203 91.424 489.851 91.832 489.432 92.138C489.013 92.4327 488.565 92.6423 488.089 92.767C487.624 92.8917 487.165 92.954 486.712 92.954ZM494.283 82.924C493.864 82.924 493.501 82.7767 493.195 82.482C492.9 82.176 492.753 81.8133 492.753 81.394C492.753 80.9633 492.9 80.6007 493.195 80.306C493.501 80.0113 493.864 79.864 494.283 79.864C494.714 79.864 495.076 80.0113 495.371 80.306C495.666 80.6007 495.813 80.9633 495.813 81.394C495.813 81.8133 495.666 82.176 495.371 82.482C495.076 82.7767 494.714 82.924 494.283 82.924ZM492.974 92.75V86.29H491.376V84.318H495.575V92.75H492.974ZM497.33 92.75V84.318H499.591L499.914 85.44C500.107 85.1227 500.424 84.8167 500.866 84.522C501.32 84.2273 501.869 84.08 502.515 84.08C503.603 84.08 504.346 84.386 504.742 84.998C505.15 85.5987 505.354 86.4713 505.354 87.616V92.75H502.77V88.262C502.77 87.8653 502.748 87.5027 502.702 87.174C502.657 86.8453 502.544 86.5847 502.362 86.392C502.192 86.188 501.898 86.086 501.478 86.086C500.934 86.086 500.538 86.2843 500.288 86.681C500.039 87.0663 499.914 87.6443 499.914 88.415V92.75H497.33ZM510.952 92.954C510.023 92.954 509.235 92.767 508.589 92.393C507.954 92.019 507.467 91.4977 507.127 90.829C506.798 90.149 506.634 89.367 506.634 88.483C506.634 87.599 506.815 86.8283 507.178 86.171C507.541 85.5023 508.045 84.9867 508.691 84.624C509.348 84.2613 510.102 84.08 510.952 84.08C511.439 84.08 511.921 84.148 512.397 84.284C512.884 84.42 513.332 84.6523 513.74 84.981C514.159 85.2983 514.499 85.7347 514.76 86.29L512.601 87.072C512.465 86.7093 512.261 86.4543 511.989 86.307C511.728 86.1597 511.434 86.086 511.105 86.086C510.799 86.086 510.504 86.1653 510.221 86.324C509.938 86.4713 509.705 86.7207 509.524 87.072C509.354 87.4233 509.269 87.8993 509.269 88.5C509.269 89.112 509.36 89.5993 509.541 89.962C509.722 90.3133 509.949 90.5683 510.221 90.727C510.504 90.8743 510.799 90.948 511.105 90.948C511.468 90.948 511.774 90.88 512.023 90.744C512.272 90.5967 512.471 90.3983 512.618 90.149L514.726 90.914C514.443 91.424 514.091 91.832 513.672 92.138C513.253 92.4327 512.805 92.6423 512.329 92.767C511.864 92.8917 511.405 92.954 510.952 92.954ZM520.087 92.954C519.305 92.954 518.574 92.7953 517.894 92.478C517.214 92.1607 516.664 91.6733 516.245 91.016C515.826 90.3473 515.616 89.5087 515.616 88.5C515.616 87.48 515.826 86.647 516.245 86.001C516.664 85.3437 517.214 84.862 517.894 84.556C518.574 84.2387 519.305 84.08 520.087 84.08C520.858 84.08 521.583 84.2387 522.263 84.556C522.943 84.862 523.493 85.3437 523.912 86.001C524.331 86.647 524.541 87.48 524.541 88.5C524.541 89.5087 524.331 90.3473 523.912 91.016C523.493 91.6733 522.943 92.1607 522.263 92.478C521.583 92.7953 520.858 92.954 520.087 92.954ZM520.087 90.948C520.608 90.948 521.039 90.761 521.379 90.387C521.73 90.013 521.906 89.384 521.906 88.5C521.906 87.6047 521.725 86.9813 521.362 86.63C521.011 86.2673 520.586 86.086 520.087 86.086C519.577 86.086 519.141 86.2673 518.778 86.63C518.427 86.9813 518.251 87.6047 518.251 88.5C518.251 89.384 518.427 90.013 518.778 90.387C519.129 90.761 519.566 90.948 520.087 90.948ZM535.577 92.954C534.795 92.954 534.064 92.7953 533.384 92.478C532.704 92.1607 532.155 91.6733 531.735 91.016C531.316 90.3473 531.106 89.5087 531.106 88.5C531.106 87.48 531.316 86.647 531.735 86.001C532.155 85.3437 532.704 84.862 533.384 84.556C534.064 84.2387 534.795 84.08 535.577 84.08C536.348 84.08 537.073 84.2387 537.753 84.556C538.433 84.862 538.983 85.3437 539.402 86.001C539.822 86.647 540.031 87.48 540.031 88.5C540.031 89.5087 539.822 90.3473 539.402 91.016C538.983 91.6733 538.433 92.1607 537.753 92.478C537.073 92.7953 536.348 92.954 535.577 92.954ZM535.577 90.948C536.099 90.948 536.529 90.761 536.869 90.387C537.221 90.013 537.396 89.384 537.396 88.5C537.396 87.6047 537.215 86.9813 536.852 86.63C536.501 86.2673 536.076 86.086 535.577 86.086C535.067 86.086 534.631 86.2673 534.268 86.63C533.917 86.9813 533.741 87.6047 533.741 88.5C533.741 89.384 533.917 90.013 534.268 90.387C534.62 90.761 535.056 90.948 535.577 90.948ZM544.367 92.954C543.619 92.954 543.03 92.818 542.599 92.546C542.18 92.2627 541.88 91.8547 541.698 91.322C541.528 90.7893 541.443 90.1433 541.443 89.384V84.318H544.027V89.027C544.027 89.7977 544.141 90.3133 544.367 90.574C544.605 90.8233 544.934 90.948 545.353 90.948C545.863 90.948 546.232 90.778 546.458 90.438C546.696 90.098 546.815 89.537 546.815 88.755V84.318H549.416V92.75H547.172L546.815 91.56C546.566 91.9793 546.254 92.3193 545.88 92.58C545.518 92.8293 545.013 92.954 544.367 92.954ZM556.884 92.75V84.318H559.145L559.468 85.44C559.661 85.1227 559.978 84.8167 560.42 84.522C560.862 84.2273 561.395 84.08 562.018 84.08C562.687 84.08 563.219 84.199 563.616 84.437C564.024 84.675 564.324 85.0263 564.517 85.491C564.846 85.0263 565.259 84.675 565.758 84.437C566.268 84.199 566.818 84.08 567.407 84.08C568.484 84.08 569.226 84.386 569.634 84.998C570.042 85.5987 570.246 86.4713 570.246 87.616V92.75H567.662V88.262C567.662 87.8653 567.639 87.5027 567.594 87.174C567.549 86.8453 567.435 86.5847 567.254 86.392C567.073 86.188 566.772 86.086 566.353 86.086C565.832 86.086 565.452 86.273 565.214 86.647C564.976 87.0097 564.857 87.5593 564.857 88.296V92.75H562.256V88.262C562.256 87.8653 562.233 87.5027 562.188 87.174C562.154 86.8453 562.046 86.5847 561.865 86.392C561.695 86.188 561.406 86.086 560.998 86.086C560.465 86.086 560.074 86.2787 559.825 86.664C559.587 87.0493 559.468 87.6103 559.468 88.347V92.75H556.884ZM574.557 92.954C574.024 92.954 573.537 92.852 573.095 92.648C572.653 92.444 572.301 92.1607 572.041 91.798C571.78 91.424 571.65 90.982 571.65 90.472C571.65 89.7807 571.888 89.231 572.364 88.823C572.851 88.415 573.514 88.109 574.353 87.905C575.191 87.701 576.155 87.5593 577.243 87.48C577.243 86.8793 577.146 86.4543 576.954 86.205C576.761 85.9557 576.387 85.831 575.832 85.831C575.48 85.831 575.169 85.916 574.897 86.086C574.636 86.2447 574.46 86.494 574.37 86.834L572.194 86.052C572.477 85.4853 572.947 85.015 573.605 84.641C574.273 84.267 575.089 84.08 576.053 84.08C577.254 84.08 578.178 84.3463 578.824 84.879C579.47 85.4117 579.793 86.3183 579.793 87.599V89.452C579.793 89.8147 579.804 90.2057 579.827 90.625C579.849 91.0443 579.883 91.441 579.929 91.815C579.974 92.189 580.025 92.5007 580.082 92.75H577.685L577.379 91.73C577.061 92.172 576.659 92.4893 576.172 92.682C575.696 92.8633 575.157 92.954 574.557 92.954ZM575.509 91.186C576.019 91.186 576.444 91.05 576.784 90.778C577.124 90.506 577.294 89.9847 577.294 89.214V89.01C576.398 89.0893 575.679 89.214 575.135 89.384C574.591 89.5427 574.319 89.843 574.319 90.285C574.319 90.557 574.432 90.778 574.659 90.948C574.885 91.1067 575.169 91.186 575.509 91.186ZM584.103 82.924C583.684 82.924 583.321 82.7767 583.015 82.482C582.721 82.176 582.573 81.8133 582.573 81.394C582.573 80.9633 582.721 80.6007 583.015 80.306C583.321 80.0113 583.684 79.864 584.103 79.864C584.534 79.864 584.897 80.0113 585.191 80.306C585.486 80.6007 585.633 80.9633 585.633 81.394C585.633 81.8133 585.486 82.176 585.191 82.482C584.897 82.7767 584.534 82.924 584.103 82.924ZM582.794 92.75V86.29H581.196V84.318H585.395V92.75H582.794ZM590.788 92.954C589.802 92.954 588.947 92.7727 588.221 92.41C587.507 92.0473 586.986 91.5147 586.657 90.812L588.85 90.013C588.975 90.3643 589.213 90.6307 589.564 90.812C589.927 90.982 590.352 91.067 590.839 91.067C591.259 91.067 591.627 91.0047 591.944 90.88C592.273 90.744 592.437 90.5457 592.437 90.285C592.437 90.1037 592.341 89.9507 592.148 89.826C591.956 89.7013 591.616 89.5993 591.128 89.52L589.615 89.265C588.799 89.129 588.136 88.8513 587.626 88.432C587.116 88.0127 586.861 87.4517 586.861 86.749C586.861 86.1597 587.037 85.6667 587.388 85.27C587.751 84.8733 588.227 84.5787 588.816 84.386C589.406 84.182 590.046 84.08 590.737 84.08C591.542 84.08 592.284 84.2273 592.964 84.522C593.656 84.8053 594.16 85.2813 594.477 85.95L592.301 86.749C592.222 86.443 592.035 86.239 591.74 86.137C591.446 86.0237 591.106 85.967 590.72 85.967C589.791 85.967 589.326 86.1937 589.326 86.647C589.326 86.817 589.406 86.9587 589.564 87.072C589.723 87.174 589.989 87.259 590.363 87.327L591.927 87.616C592.947 87.7973 593.701 88.0637 594.188 88.415C594.676 88.7663 594.919 89.2933 594.919 89.996C594.919 90.6533 594.732 91.203 594.358 91.645C593.984 92.087 593.486 92.4157 592.862 92.631C592.239 92.8463 591.548 92.954 590.788 92.954ZM597.606 92.954C597.152 92.954 596.761 92.7897 596.433 92.461C596.104 92.1323 595.94 91.7413 595.94 91.288C595.94 90.8233 596.104 90.4323 596.433 90.115C596.761 89.7977 597.152 89.639 597.606 89.639C598.059 89.639 598.444 89.7977 598.762 90.115C599.09 90.4323 599.255 90.8233 599.255 91.288C599.255 91.7413 599.09 92.1323 598.762 92.461C598.444 92.7897 598.059 92.954 597.606 92.954Z" fill="#262626"/>
<rect width="259" height="153.5" transform="translate(398.5 169.5)" fill="#F7F39D"/>
<path d="M434.869 241.25V229.894H439.238C440.224 229.894 441.102 229.996 441.873 230.2C442.655 230.404 443.267 230.772 443.709 231.305C444.162 231.838 444.389 232.603 444.389 233.6C444.389 234.586 444.162 235.351 443.709 235.895C443.267 236.428 442.655 236.796 441.873 237C441.102 237.204 440.224 237.306 439.238 237.306H437.555V241.25H434.869ZM437.555 235.079H439.323C439.742 235.079 440.116 235.039 440.445 234.96C440.785 234.881 441.051 234.733 441.244 234.518C441.448 234.303 441.55 233.997 441.55 233.6C441.55 233.203 441.448 232.903 441.244 232.699C441.051 232.484 440.785 232.342 440.445 232.274C440.116 232.195 439.742 232.155 439.323 232.155H437.555V235.079ZM449.791 241.454C449.009 241.454 448.278 241.295 447.598 240.978C446.918 240.661 446.369 240.173 445.949 239.516C445.53 238.847 445.32 238.009 445.32 237C445.32 235.98 445.53 235.147 445.949 234.501C446.369 233.844 446.918 233.362 447.598 233.056C448.278 232.739 449.009 232.58 449.791 232.58C450.562 232.58 451.287 232.739 451.967 233.056C452.647 233.362 453.197 233.844 453.616 234.501C454.036 235.147 454.245 235.98 454.245 237C454.245 238.009 454.036 238.847 453.616 239.516C453.197 240.173 452.647 240.661 451.967 240.978C451.287 241.295 450.562 241.454 449.791 241.454ZM449.791 239.448C450.313 239.448 450.743 239.261 451.083 238.887C451.435 238.513 451.61 237.884 451.61 237C451.61 236.105 451.429 235.481 451.066 235.13C450.715 234.767 450.29 234.586 449.791 234.586C449.281 234.586 448.845 234.767 448.482 235.13C448.131 235.481 447.955 236.105 447.955 237C447.955 237.884 448.131 238.513 448.482 238.887C448.834 239.261 449.27 239.448 449.791 239.448ZM455.657 241.25V232.818H457.918L458.241 233.94C458.434 233.623 458.751 233.317 459.193 233.022C459.647 232.727 460.196 232.58 460.842 232.58C461.93 232.58 462.673 232.886 463.069 233.498C463.477 234.099 463.681 234.971 463.681 236.116V241.25H461.097V236.762C461.097 236.365 461.075 236.003 461.029 235.674C460.984 235.345 460.871 235.085 460.689 234.892C460.519 234.688 460.225 234.586 459.805 234.586C459.261 234.586 458.865 234.784 458.615 235.181C458.366 235.566 458.241 236.144 458.241 236.915V241.25H455.657ZM469.089 241.25C468.398 241.25 467.848 241.193 467.44 241.08C467.032 240.955 466.737 240.723 466.556 240.383C466.386 240.032 466.301 239.527 466.301 238.87V234.79H464.907V232.818H466.301V230.71H468.885V232.818H470.721V234.79H468.885V238.19C468.885 238.587 468.959 238.847 469.106 238.972C469.265 239.085 469.554 239.142 469.973 239.142H470.721V241.25H469.089ZM475.051 241.454C474.303 241.454 473.714 241.318 473.283 241.046C472.864 240.763 472.564 240.355 472.382 239.822C472.212 239.289 472.127 238.643 472.127 237.884V232.818H474.711V237.527C474.711 238.298 474.825 238.813 475.051 239.074C475.289 239.323 475.618 239.448 476.037 239.448C476.547 239.448 476.916 239.278 477.142 238.938C477.38 238.598 477.499 238.037 477.499 237.255V232.818H480.1V241.25H477.856L477.499 240.06C477.25 240.479 476.938 240.819 476.564 241.08C476.202 241.329 475.697 241.454 475.051 241.454ZM484.438 241.454C483.905 241.454 483.418 241.352 482.976 241.148C482.534 240.944 482.182 240.661 481.922 240.298C481.661 239.924 481.531 239.482 481.531 238.972C481.531 238.281 481.769 237.731 482.245 237.323C482.732 236.915 483.395 236.609 484.234 236.405C485.072 236.201 486.036 236.059 487.124 235.98C487.124 235.379 487.027 234.954 486.835 234.705C486.642 234.456 486.268 234.331 485.713 234.331C485.361 234.331 485.05 234.416 484.778 234.586C484.517 234.745 484.341 234.994 484.251 235.334L482.075 234.552C482.358 233.985 482.828 233.515 483.486 233.141C484.154 232.767 484.97 232.58 485.934 232.58C487.135 232.58 488.059 232.846 488.705 233.379C489.351 233.912 489.674 234.818 489.674 236.099V237.952C489.674 238.315 489.685 238.706 489.708 239.125C489.73 239.544 489.764 239.941 489.81 240.315C489.855 240.689 489.906 241.001 489.963 241.25H487.566L487.26 240.23C486.942 240.672 486.54 240.989 486.053 241.182C485.577 241.363 485.038 241.454 484.438 241.454ZM485.39 239.686C485.9 239.686 486.325 239.55 486.665 239.278C487.005 239.006 487.175 238.485 487.175 237.714V237.51C486.279 237.589 485.56 237.714 485.016 237.884C484.472 238.043 484.2 238.343 484.2 238.785C484.2 239.057 484.313 239.278 484.54 239.448C484.766 239.607 485.05 239.686 485.39 239.686ZM495.395 241.454C494.466 241.454 493.678 241.267 493.032 240.893C492.397 240.519 491.91 239.998 491.57 239.329C491.241 238.649 491.077 237.867 491.077 236.983C491.077 236.099 491.258 235.328 491.621 234.671C491.984 234.002 492.488 233.487 493.134 233.124C493.791 232.761 494.545 232.58 495.395 232.58C495.882 232.58 496.364 232.648 496.84 232.784C497.327 232.92 497.775 233.152 498.183 233.481C498.602 233.798 498.942 234.235 499.203 234.79L497.044 235.572C496.908 235.209 496.704 234.954 496.432 234.807C496.171 234.66 495.877 234.586 495.548 234.586C495.242 234.586 494.947 234.665 494.664 234.824C494.381 234.971 494.148 235.221 493.967 235.572C493.797 235.923 493.712 236.399 493.712 237C493.712 237.612 493.803 238.099 493.984 238.462C494.165 238.813 494.392 239.068 494.664 239.227C494.947 239.374 495.242 239.448 495.548 239.448C495.911 239.448 496.217 239.38 496.466 239.244C496.715 239.097 496.914 238.898 497.061 238.649L499.169 239.414C498.886 239.924 498.534 240.332 498.115 240.638C497.696 240.933 497.248 241.142 496.772 241.267C496.307 241.392 495.848 241.454 495.395 241.454ZM495.004 244.429C494.732 244.429 494.466 244.406 494.205 244.361C493.956 244.327 493.723 244.276 493.508 244.208L493.78 243.358C493.871 243.403 494.012 243.449 494.205 243.494C494.409 243.551 494.613 243.579 494.817 243.579C495.021 243.579 495.197 243.545 495.344 243.477C495.491 243.409 495.565 243.29 495.565 243.12C495.565 242.984 495.508 242.876 495.395 242.797C495.282 242.718 495.129 242.678 494.936 242.678C494.8 242.678 494.647 242.706 494.477 242.763C494.375 242.797 494.279 242.786 494.188 242.729C494.109 242.684 494.052 242.61 494.018 242.508C493.995 242.417 494.007 242.332 494.052 242.253L494.936 240.825L495.633 241.25L495.123 242.066C495.282 242.032 495.474 242.015 495.701 242.015C495.916 242.015 496.137 242.049 496.364 242.117C496.591 242.185 496.778 242.293 496.925 242.44C497.084 242.599 497.163 242.808 497.163 243.069C497.163 243.398 497.055 243.658 496.84 243.851C496.636 244.055 496.37 244.202 496.041 244.293C495.712 244.384 495.367 244.429 495.004 244.429ZM502.966 241.454C502.433 241.454 501.946 241.352 501.504 241.148C501.062 240.944 500.711 240.661 500.45 240.298C500.189 239.924 500.059 239.482 500.059 238.972C500.059 238.281 500.297 237.731 500.773 237.323C501.26 236.915 501.923 236.609 502.762 236.405C503.601 236.201 504.564 236.059 505.652 235.98C505.652 235.379 505.556 234.954 505.363 234.705C505.17 234.456 504.796 234.331 504.241 234.331C503.89 234.331 503.578 234.416 503.306 234.586C503.045 234.745 502.87 234.994 502.779 235.334L500.603 234.552C500.886 233.985 501.357 233.515 502.014 233.141C502.683 232.767 503.499 232.58 504.462 232.58C505.663 232.58 506.587 232.846 507.233 233.379C507.879 233.912 508.202 234.818 508.202 236.099V237.952C508.202 238.315 508.213 238.706 508.236 239.125C508.259 239.544 508.293 239.941 508.338 240.315C508.383 240.689 508.434 241.001 508.491 241.25H506.094L505.788 240.23C505.471 240.672 505.068 240.989 504.581 241.182C504.105 241.363 503.567 241.454 502.966 241.454ZM503.918 239.686C504.428 239.686 504.853 239.55 505.193 239.278C505.533 239.006 505.703 238.485 505.703 237.714V237.51C504.808 237.589 504.088 237.714 503.544 237.884C503 238.043 502.728 238.343 502.728 238.785C502.728 239.057 502.841 239.278 503.068 239.448C503.295 239.607 503.578 239.686 503.918 239.686ZM505.737 231.577C505.295 231.577 504.893 231.486 504.53 231.305C504.315 231.192 504.145 231.101 504.02 231.033C503.895 230.965 503.754 230.931 503.595 230.931C503.414 230.931 503.255 230.982 503.119 231.084C502.983 231.175 502.898 231.311 502.864 231.492H501.351C501.453 230.869 501.68 230.387 502.031 230.047C502.394 229.707 502.875 229.537 503.476 229.537C503.839 229.537 504.128 229.594 504.343 229.707C504.57 229.82 504.774 229.939 504.955 230.064C505.148 230.177 505.357 230.234 505.584 230.234C505.743 230.234 505.873 230.206 505.975 230.149C506.088 230.081 506.202 229.99 506.315 229.877C506.519 229.65 506.723 229.537 506.927 229.537C507.142 229.537 507.312 229.605 507.437 229.741C507.573 229.866 507.641 230.024 507.641 230.217C507.641 230.432 507.545 230.648 507.352 230.863C507.171 231.067 506.933 231.237 506.638 231.373C506.355 231.509 506.054 231.577 505.737 231.577ZM513.944 241.454C513.162 241.454 512.431 241.295 511.751 240.978C511.071 240.661 510.521 240.173 510.102 239.516C509.682 238.847 509.473 238.009 509.473 237C509.473 235.98 509.682 235.147 510.102 234.501C510.521 233.844 511.071 233.362 511.751 233.056C512.431 232.739 513.162 232.58 513.944 232.58C514.714 232.58 515.44 232.739 516.12 233.056C516.8 233.362 517.349 233.844 517.769 234.501C518.188 235.147 518.398 235.98 518.398 237C518.398 238.009 518.188 238.847 517.769 239.516C517.349 240.173 516.8 240.661 516.12 240.978C515.44 241.295 514.714 241.454 513.944 241.454ZM513.944 239.448C514.465 239.448 514.896 239.261 515.236 238.887C515.587 238.513 515.763 237.884 515.763 237C515.763 236.105 515.581 235.481 515.219 235.13C514.867 234.767 514.442 234.586 513.944 234.586C513.434 234.586 512.997 234.767 512.635 235.13C512.283 235.481 512.108 236.105 512.108 237C512.108 237.884 512.283 238.513 512.635 238.887C512.986 239.261 513.422 239.448 513.944 239.448ZM528.686 241.454C527.961 241.454 527.315 241.273 526.748 240.91C526.193 240.547 525.757 240.032 525.439 239.363C525.122 238.683 524.963 237.884 524.963 236.966C524.963 236.048 525.122 235.266 525.439 234.62C525.757 233.963 526.193 233.458 526.748 233.107C527.315 232.756 527.961 232.58 528.686 232.58C529.151 232.58 529.627 232.699 530.114 232.937C530.602 233.164 530.981 233.509 531.253 233.974V229.894H533.837V237.952C533.837 238.371 533.854 238.87 533.888 239.448C533.934 240.026 534.013 240.627 534.126 241.25H531.661L531.321 240.111C530.97 240.598 530.556 240.944 530.08 241.148C529.616 241.352 529.151 241.454 528.686 241.454ZM529.519 239.448C530.018 239.448 530.449 239.261 530.811 238.887C531.185 238.513 531.372 237.89 531.372 237.017C531.372 236.156 531.185 235.538 530.811 235.164C530.449 234.779 530.018 234.586 529.519 234.586C529.009 234.586 528.567 234.79 528.193 235.198C527.831 235.606 527.649 236.195 527.649 236.966C527.649 237.748 527.831 238.36 528.193 238.802C528.567 239.233 529.009 239.448 529.519 239.448ZM539.864 241.454C538.957 241.454 538.153 241.278 537.45 240.927C536.759 240.564 536.215 240.049 535.818 239.38C535.433 238.711 535.24 237.912 535.24 236.983C535.24 236.088 535.444 235.311 535.852 234.654C536.271 233.997 536.821 233.487 537.501 233.124C538.192 232.761 538.946 232.58 539.762 232.58C540.691 232.58 541.485 232.801 542.142 233.243C542.811 233.674 543.315 234.274 543.655 235.045C543.995 235.804 544.137 236.683 544.08 237.68H537.841C537.886 238.269 538.102 238.711 538.487 239.006C538.884 239.301 539.32 239.448 539.796 239.448C540.193 239.448 540.533 239.391 540.816 239.278C541.111 239.153 541.337 239 541.496 238.819L543.553 239.567C543.111 240.213 542.556 240.689 541.887 240.995C541.23 241.301 540.555 241.454 539.864 241.454ZM537.841 236.15H541.683C541.672 235.606 541.485 235.198 541.122 234.926C540.759 234.643 540.329 234.501 539.83 234.501C539.343 234.501 538.906 234.631 538.521 234.892C538.147 235.153 537.92 235.572 537.841 236.15ZM555.153 241.454C554.519 241.454 553.907 241.363 553.317 241.182C552.739 241.001 552.229 240.723 551.787 240.349C551.345 239.964 551.005 239.471 550.767 238.87L553.113 238.02C553.261 238.575 553.533 238.966 553.929 239.193C554.326 239.42 554.757 239.533 555.221 239.533C555.754 239.533 556.179 239.403 556.496 239.142C556.814 238.881 556.972 238.519 556.972 238.054C556.972 237.589 556.825 237.232 556.53 236.983C556.236 236.722 555.845 236.547 555.357 236.456C554.881 236.354 554.36 236.303 553.793 236.303V234.501C554.768 234.501 555.516 234.365 556.037 234.093C556.57 233.821 556.836 233.436 556.836 232.937C556.836 232.495 556.655 232.166 556.292 231.951C555.941 231.724 555.533 231.611 555.068 231.611C554.649 231.611 554.264 231.713 553.912 231.917C553.561 232.121 553.329 232.484 553.215 233.005L550.886 232.155C551.113 231.577 551.447 231.107 551.889 230.744C552.331 230.381 552.841 230.115 553.419 229.945C553.997 229.775 554.598 229.69 555.221 229.69C555.743 229.69 556.253 229.747 556.751 229.86C557.25 229.973 557.698 230.155 558.094 230.404C558.502 230.642 558.825 230.948 559.063 231.322C559.313 231.685 559.437 232.121 559.437 232.631C559.437 233.243 559.273 233.781 558.944 234.246C558.616 234.699 558.253 235.039 557.856 235.266C558.23 235.402 558.548 235.617 558.808 235.912C559.08 236.207 559.284 236.53 559.42 236.881C559.556 237.232 559.624 237.584 559.624 237.935C559.624 238.728 559.415 239.386 558.995 239.907C558.576 240.417 558.026 240.802 557.346 241.063C556.666 241.324 555.935 241.454 555.153 241.454ZM571.277 241.454C570.37 241.454 569.565 241.278 568.863 240.927C568.171 240.564 567.627 240.049 567.231 239.38C566.845 238.711 566.653 237.912 566.653 236.983C566.653 236.088 566.857 235.311 567.265 234.654C567.684 233.997 568.234 233.487 568.914 233.124C569.605 232.761 570.359 232.58 571.175 232.58C572.104 232.58 572.897 232.801 573.555 233.243C574.223 233.674 574.728 234.274 575.068 235.045C575.408 235.804 575.549 236.683 575.493 237.68H569.254C569.299 238.269 569.514 238.711 569.9 239.006C570.296 239.301 570.733 239.448 571.209 239.448C571.605 239.448 571.945 239.391 572.229 239.278C572.523 239.153 572.75 239 572.909 238.819L574.966 239.567C574.524 240.213 573.968 240.689 573.3 240.995C572.642 241.301 571.968 241.454 571.277 241.454ZM569.254 236.15H573.096C573.084 235.606 572.897 235.198 572.535 234.926C572.172 234.643 571.741 234.501 571.243 234.501C570.755 234.501 570.319 234.631 569.934 234.892C569.56 235.153 569.333 235.572 569.254 236.15ZM576.874 241.25V232.818H579.135L579.458 233.94C579.65 233.623 579.968 233.317 580.41 233.022C580.852 232.727 581.384 232.58 582.008 232.58C582.676 232.58 583.209 232.699 583.606 232.937C584.014 233.175 584.314 233.526 584.507 233.991C584.835 233.526 585.249 233.175 585.748 232.937C586.258 232.699 586.807 232.58 587.397 232.58C588.473 232.58 589.216 232.886 589.624 233.498C590.032 234.099 590.236 234.971 590.236 236.116V241.25H587.652V236.762C587.652 236.365 587.629 236.003 587.584 235.674C587.538 235.345 587.425 235.085 587.244 234.892C587.062 234.688 586.762 234.586 586.343 234.586C585.821 234.586 585.442 234.773 585.204 235.147C584.966 235.51 584.847 236.059 584.847 236.796V241.25H582.246V236.762C582.246 236.365 582.223 236.003 582.178 235.674C582.144 235.345 582.036 235.085 581.855 234.892C581.685 234.688 581.396 234.586 580.988 234.586C580.455 234.586 580.064 234.779 579.815 235.164C579.577 235.549 579.458 236.11 579.458 236.847V241.25H576.874ZM600.6 241.454C599.852 241.454 599.263 241.318 598.832 241.046C598.413 240.763 598.113 240.355 597.931 239.822C597.761 239.289 597.676 238.643 597.676 237.884V232.818H600.26V237.527C600.26 238.298 600.374 238.813 600.6 239.074C600.838 239.323 601.167 239.448 601.586 239.448C602.096 239.448 602.465 239.278 602.691 238.938C602.929 238.598 603.048 238.037 603.048 237.255V232.818H605.649V241.25H603.405L603.048 240.06C602.799 240.479 602.487 240.819 602.113 241.08C601.751 241.329 601.246 241.454 600.6 241.454ZM607.522 241.25V232.818H609.783L610.106 233.94C610.298 233.623 610.616 233.317 611.058 233.022C611.5 232.727 612.032 232.58 612.656 232.58C613.324 232.58 613.857 232.699 614.254 232.937C614.662 233.175 614.962 233.526 615.155 233.991C615.483 233.526 615.897 233.175 616.396 232.937C616.906 232.699 617.455 232.58 618.045 232.58C619.121 232.58 619.864 232.886 620.272 233.498C620.68 234.099 620.884 234.971 620.884 236.116V241.25H618.3V236.762C618.3 236.365 618.277 236.003 618.232 235.674C618.186 235.345 618.073 235.085 617.892 234.892C617.71 234.688 617.41 234.586 616.991 234.586C616.469 234.586 616.09 234.773 615.852 235.147C615.614 235.51 615.495 236.059 615.495 236.796V241.25H612.894V236.762C612.894 236.365 612.871 236.003 612.826 235.674C612.792 235.345 612.684 235.085 612.503 234.892C612.333 234.688 612.044 234.586 611.636 234.586C611.103 234.586 610.712 234.779 610.463 235.164C610.225 235.549 610.106 236.11 610.106 236.847V241.25H607.522ZM431.309 264.987V253.818H433.553L433.893 254.974C434.165 254.509 434.545 254.164 435.032 253.937C435.531 253.699 436.007 253.58 436.46 253.58C437.186 253.58 437.826 253.761 438.381 254.124C438.948 254.487 439.39 255.002 439.707 255.671C440.025 256.328 440.183 257.116 440.183 258.034C440.183 258.952 440.025 259.745 439.707 260.414C439.39 261.071 438.948 261.576 438.381 261.927C437.826 262.278 437.186 262.454 436.46 262.454C436.007 262.454 435.531 262.335 435.032 262.097C434.545 261.859 434.165 261.508 433.893 261.043V264.987H431.309ZM435.644 260.448C436.143 260.448 436.574 260.244 436.936 259.836C437.31 259.428 437.497 258.827 437.497 258.034C437.497 257.263 437.31 256.663 436.936 256.232C436.574 255.801 436.143 255.586 435.644 255.586C435.134 255.586 434.692 255.767 434.318 256.13C433.956 256.493 433.774 257.11 433.774 257.983C433.774 258.844 433.956 259.473 434.318 259.87C434.692 260.255 435.134 260.448 435.644 260.448ZM444.051 262.454C443.519 262.454 443.031 262.352 442.589 262.148C442.147 261.944 441.796 261.661 441.535 261.298C441.275 260.924 441.144 260.482 441.144 259.972C441.144 259.281 441.382 258.731 441.858 258.323C442.346 257.915 443.009 257.609 443.847 257.405C444.686 257.201 445.649 257.059 446.737 256.98C446.737 256.379 446.641 255.954 446.448 255.705C446.256 255.456 445.882 255.331 445.326 255.331C444.975 255.331 444.663 255.416 444.391 255.586C444.131 255.745 443.955 255.994 443.864 256.334L441.688 255.552C441.972 254.985 442.442 254.515 443.099 254.141C443.768 253.767 444.584 253.58 445.547 253.58C446.749 253.58 447.672 253.846 448.318 254.379C448.964 254.912 449.287 255.818 449.287 257.099V258.952C449.287 259.315 449.299 259.706 449.321 260.125C449.344 260.544 449.378 260.941 449.423 261.315C449.469 261.689 449.52 262.001 449.576 262.25H447.179L446.873 261.23C446.556 261.672 446.154 261.989 445.666 262.182C445.19 262.363 444.652 262.454 444.051 262.454ZM445.003 260.686C445.513 260.686 445.938 260.55 446.278 260.278C446.618 260.006 446.788 259.485 446.788 258.714V258.51C445.893 258.589 445.173 258.714 444.629 258.884C444.085 259.043 443.813 259.343 443.813 259.785C443.813 260.057 443.927 260.278 444.153 260.448C444.38 260.607 444.663 260.686 445.003 260.686ZM451.133 262.25V253.818H453.173L453.632 255.365C453.892 254.685 454.249 254.209 454.703 253.937C455.156 253.665 455.706 253.546 456.352 253.58V256.164C456.216 256.141 456.097 256.13 455.995 256.13C455.893 256.119 455.779 256.113 455.655 256.113C455.031 256.113 454.55 256.26 454.21 256.555C453.881 256.85 453.717 257.331 453.717 258V262.25H451.133ZM459.857 262.454C459.325 262.454 458.837 262.352 458.395 262.148C457.953 261.944 457.602 261.661 457.341 261.298C457.081 260.924 456.95 260.482 456.95 259.972C456.95 259.281 457.188 258.731 457.664 258.323C458.152 257.915 458.815 257.609 459.653 257.405C460.492 257.201 461.455 257.059 462.543 256.98C462.543 256.379 462.447 255.954 462.254 255.705C462.062 255.456 461.688 255.331 461.132 255.331C460.781 255.331 460.469 255.416 460.197 255.586C459.937 255.745 459.761 255.994 459.67 256.334L457.494 255.552C457.778 254.985 458.248 254.515 458.905 254.141C459.574 253.767 460.39 253.58 461.353 253.58C462.555 253.58 463.478 253.846 464.124 254.379C464.77 254.912 465.093 255.818 465.093 257.099V258.952C465.093 259.315 465.105 259.706 465.127 260.125C465.15 260.544 465.184 260.941 465.229 261.315C465.275 261.689 465.326 262.001 465.382 262.25H462.985L462.679 261.23C462.362 261.672 461.96 261.989 461.472 262.182C460.996 262.363 460.458 262.454 459.857 262.454ZM460.809 260.686C461.319 260.686 461.744 260.55 462.084 260.278C462.424 260.006 462.594 259.485 462.594 258.714V258.51C461.699 258.589 460.979 258.714 460.435 258.884C459.891 259.043 459.619 259.343 459.619 259.785C459.619 260.057 459.733 260.278 459.959 260.448C460.186 260.607 460.469 260.686 460.809 260.686ZM458.038 252.492L460.537 250.248C460.787 250.021 461.07 249.908 461.387 249.908C461.546 249.908 461.699 249.942 461.846 250.01C461.994 250.067 462.124 250.146 462.237 250.248L464.719 252.492H462.543L461.387 251.455L460.231 252.492H458.038ZM466.939 262.25V253.818H469.2L469.523 254.94C469.715 254.623 470.033 254.317 470.475 254.022C470.917 253.727 471.449 253.58 472.073 253.58C472.741 253.58 473.274 253.699 473.671 253.937C474.079 254.175 474.379 254.526 474.572 254.991C474.9 254.526 475.314 254.175 475.813 253.937C476.323 253.699 476.872 253.58 477.462 253.58C478.538 253.58 479.281 253.886 479.689 254.498C480.097 255.099 480.301 255.971 480.301 257.116V262.25H477.717V257.762C477.717 257.365 477.694 257.003 477.649 256.674C477.603 256.345 477.49 256.085 477.309 255.892C477.127 255.688 476.827 255.586 476.408 255.586C475.886 255.586 475.507 255.773 475.269 256.147C475.031 256.51 474.912 257.059 474.912 257.796V262.25H472.311V257.762C472.311 257.365 472.288 257.003 472.243 256.674C472.209 256.345 472.101 256.085 471.92 255.892C471.75 255.688 471.461 255.586 471.053 255.586C470.52 255.586 470.129 255.779 469.88 256.164C469.642 256.549 469.523 257.11 469.523 257.847V262.25H466.939ZM486.195 262.454C485.289 262.454 484.484 262.278 483.781 261.927C483.09 261.564 482.546 261.049 482.149 260.38C481.764 259.711 481.571 258.912 481.571 257.983C481.571 257.088 481.775 256.311 482.183 255.654C482.603 254.997 483.152 254.487 483.832 254.124C484.524 253.761 485.277 253.58 486.093 253.58C487.023 253.58 487.816 253.801 488.473 254.243C489.142 254.674 489.646 255.274 489.986 256.045C490.326 256.804 490.468 257.683 490.411 258.68H484.172C484.218 259.269 484.433 259.711 484.818 260.006C485.215 260.301 485.651 260.448 486.127 260.448C486.524 260.448 486.864 260.391 487.147 260.278C487.442 260.153 487.669 260 487.827 259.819L489.884 260.567C489.442 261.213 488.887 261.689 488.218 261.995C487.561 262.301 486.887 262.454 486.195 262.454ZM484.172 257.15H488.014C488.003 256.606 487.816 256.198 487.453 255.926C487.091 255.643 486.66 255.501 486.161 255.501C485.674 255.501 485.238 255.631 484.852 255.892C484.478 256.153 484.252 256.572 484.172 257.15ZM495.345 262.25C494.654 262.25 494.104 262.193 493.696 262.08C493.288 261.955 492.994 261.723 492.812 261.383C492.642 261.032 492.557 260.527 492.557 259.87V255.79H491.163V253.818H492.557V251.71H495.141V253.818H496.977V255.79H495.141V259.19C495.141 259.587 495.215 259.847 495.362 259.972C495.521 260.085 495.81 260.142 496.229 260.142H496.977V262.25H495.345ZM498.384 262.25V253.818H500.424L500.883 255.365C501.143 254.685 501.5 254.209 501.954 253.937C502.407 253.665 502.957 253.546 503.603 253.58V256.164C503.467 256.141 503.348 256.13 503.246 256.13C503.144 256.119 503.03 256.113 502.906 256.113C502.282 256.113 501.801 256.26 501.461 256.555C501.132 256.85 500.968 257.331 500.968 258V262.25H498.384ZM508.888 262.454C508.106 262.454 507.375 262.295 506.695 261.978C506.015 261.661 505.465 261.173 505.046 260.516C504.627 259.847 504.417 259.009 504.417 258C504.417 256.98 504.627 256.147 505.046 255.501C505.465 254.844 506.015 254.362 506.695 254.056C507.375 253.739 508.106 253.58 508.888 253.58C509.659 253.58 510.384 253.739 511.064 254.056C511.744 254.362 512.294 254.844 512.713 255.501C513.132 256.147 513.342 256.98 513.342 258C513.342 259.009 513.132 259.847 512.713 260.516C512.294 261.173 511.744 261.661 511.064 261.978C510.384 262.295 509.659 262.454 508.888 262.454ZM508.888 260.448C509.409 260.448 509.84 260.261 510.18 259.887C510.531 259.513 510.707 258.884 510.707 258C510.707 257.105 510.526 256.481 510.163 256.13C509.812 255.767 509.387 255.586 508.888 255.586C508.378 255.586 507.942 255.767 507.579 256.13C507.228 256.481 507.052 257.105 507.052 258C507.052 258.884 507.228 259.513 507.579 259.887C507.93 260.261 508.367 260.448 508.888 260.448ZM523.63 262.454C522.905 262.454 522.259 262.273 521.692 261.91C521.137 261.547 520.701 261.032 520.383 260.363C520.066 259.683 519.907 258.884 519.907 257.966C519.907 257.048 520.066 256.266 520.383 255.62C520.701 254.963 521.137 254.458 521.692 254.107C522.259 253.756 522.905 253.58 523.63 253.58C524.095 253.58 524.571 253.699 525.058 253.937C525.546 254.164 525.925 254.509 526.197 254.974V250.894H528.781V258.952C528.781 259.371 528.798 259.87 528.832 260.448C528.878 261.026 528.957 261.627 529.07 262.25H526.605L526.265 261.111C525.914 261.598 525.5 261.944 525.024 262.148C524.56 262.352 524.095 262.454 523.63 262.454ZM524.463 260.448C524.962 260.448 525.393 260.261 525.755 259.887C526.129 259.513 526.316 258.89 526.316 258.017C526.316 257.156 526.129 256.538 525.755 256.164C525.393 255.779 524.962 255.586 524.463 255.586C523.953 255.586 523.511 255.79 523.137 256.198C522.775 256.606 522.593 257.195 522.593 257.966C522.593 258.748 522.775 259.36 523.137 259.802C523.511 260.233 523.953 260.448 524.463 260.448ZM534.808 262.454C533.902 262.454 533.097 262.278 532.394 261.927C531.703 261.564 531.159 261.049 530.762 260.38C530.377 259.711 530.184 258.912 530.184 257.983C530.184 257.088 530.388 256.311 530.796 255.654C531.216 254.997 531.765 254.487 532.445 254.124C533.137 253.761 533.89 253.58 534.706 253.58C535.636 253.58 536.429 253.801 537.086 254.243C537.755 254.674 538.259 255.274 538.599 256.045C538.939 256.804 539.081 257.683 539.024 258.68H532.785C532.831 259.269 533.046 259.711 533.431 260.006C533.828 260.301 534.264 260.448 534.74 260.448C535.137 260.448 535.477 260.391 535.76 260.278C536.055 260.153 536.282 260 536.44 259.819L538.497 260.567C538.055 261.213 537.5 261.689 536.831 261.995C536.174 262.301 535.5 262.454 534.808 262.454ZM532.785 257.15H536.627C536.616 256.606 536.429 256.198 536.066 255.926C535.704 255.643 535.273 255.501 534.774 255.501C534.287 255.501 533.851 255.631 533.465 255.892C533.091 256.153 532.865 256.572 532.785 257.15ZM548.466 262.454C547.933 262.454 547.446 262.352 547.004 262.148C546.562 261.944 546.21 261.661 545.95 261.298C545.689 260.924 545.559 260.482 545.559 259.972C545.559 259.281 545.797 258.731 546.273 258.323C546.76 257.915 547.423 257.609 548.262 257.405C549.1 257.201 550.064 257.059 551.152 256.98C551.152 256.379 551.055 255.954 550.863 255.705C550.67 255.456 550.296 255.331 549.741 255.331C549.389 255.331 549.078 255.416 548.806 255.586C548.545 255.745 548.369 255.994 548.279 256.334L546.103 255.552C546.386 254.985 546.856 254.515 547.514 254.141C548.182 253.767 548.998 253.58 549.962 253.58C551.163 253.58 552.087 253.846 552.733 254.379C553.379 254.912 553.702 255.818 553.702 257.099V258.952C553.702 259.315 553.713 259.706 553.736 260.125C553.758 260.544 553.792 260.941 553.838 261.315C553.883 261.689 553.934 262.001 553.991 262.25H551.594L551.288 261.23C550.97 261.672 550.568 261.989 550.081 262.182C549.605 262.363 549.066 262.454 548.466 262.454ZM549.418 260.686C549.928 260.686 550.353 260.55 550.693 260.278C551.033 260.006 551.203 259.485 551.203 258.714V258.51C550.307 258.589 549.588 258.714 549.044 258.884C548.5 259.043 548.228 259.343 548.228 259.785C548.228 260.057 548.341 260.278 548.568 260.448C548.794 260.607 549.078 260.686 549.418 260.686ZM557.706 262.25L554.697 253.818H557.366L559.168 259.564L560.97 253.818H563.639L560.613 262.25H557.706ZM566.795 262.454C566.262 262.454 565.775 262.352 565.333 262.148C564.891 261.944 564.54 261.661 564.279 261.298C564.018 260.924 563.888 260.482 563.888 259.972C563.888 259.281 564.126 258.731 564.602 258.323C565.089 257.915 565.752 257.609 566.591 257.405C567.43 257.201 568.393 257.059 569.481 256.98C569.481 256.379 569.385 255.954 569.192 255.705C568.999 255.456 568.625 255.331 568.07 255.331C567.719 255.331 567.407 255.416 567.135 255.586C566.874 255.745 566.699 255.994 566.608 256.334L564.432 255.552C564.715 254.985 565.186 254.515 565.843 254.141C566.512 253.767 567.328 253.58 568.291 253.58C569.492 253.58 570.416 253.846 571.062 254.379C571.708 254.912 572.031 255.818 572.031 257.099V258.952C572.031 259.315 572.042 259.706 572.065 260.125C572.088 260.544 572.122 260.941 572.167 261.315C572.212 261.689 572.263 262.001 572.32 262.25H569.923L569.617 261.23C569.3 261.672 568.897 261.989 568.41 262.182C567.934 262.363 567.396 262.454 566.795 262.454ZM567.747 260.686C568.257 260.686 568.682 260.55 569.022 260.278C569.362 260.006 569.532 259.485 569.532 258.714V258.51C568.637 258.589 567.917 258.714 567.373 258.884C566.829 259.043 566.557 259.343 566.557 259.785C566.557 260.057 566.67 260.278 566.897 260.448C567.124 260.607 567.407 260.686 567.747 260.686ZM576.664 262.25C575.973 262.25 575.423 262.193 575.015 262.08C574.607 261.955 574.313 261.723 574.131 261.383C573.961 261.032 573.876 260.527 573.876 259.87V250.894H576.46V259.19C576.46 259.587 576.54 259.847 576.698 259.972C576.857 260.085 577.152 260.142 577.582 260.142H578.313V262.25H576.664ZM581.372 252.424C580.953 252.424 580.59 252.277 580.284 251.982C579.99 251.676 579.842 251.313 579.842 250.894C579.842 250.463 579.99 250.101 580.284 249.806C580.59 249.511 580.953 249.364 581.372 249.364C581.803 249.364 582.166 249.511 582.46 249.806C582.755 250.101 582.902 250.463 582.902 250.894C582.902 251.313 582.755 251.676 582.46 251.982C582.166 252.277 581.803 252.424 581.372 252.424ZM580.063 262.25V255.79H578.465V253.818H582.664V262.25H580.063ZM586.885 262.454C586.352 262.454 585.865 262.352 585.423 262.148C584.981 261.944 584.629 261.661 584.369 261.298C584.108 260.924 583.978 260.482 583.978 259.972C583.978 259.281 584.216 258.731 584.692 258.323C585.179 257.915 585.842 257.609 586.681 257.405C587.519 257.201 588.483 257.059 589.571 256.98C589.571 256.379 589.474 255.954 589.282 255.705C589.089 255.456 588.715 255.331 588.16 255.331C587.808 255.331 587.497 255.416 587.225 255.586C586.964 255.745 586.788 255.994 586.698 256.334L584.522 255.552C584.805 254.985 585.275 254.515 585.933 254.141C586.601 253.767 587.417 253.58 588.381 253.58C589.582 253.58 590.506 253.846 591.152 254.379C591.798 254.912 592.121 255.818 592.121 257.099V258.952C592.121 259.315 592.132 259.706 592.155 260.125C592.177 260.544 592.211 260.941 592.257 261.315C592.302 261.689 592.353 262.001 592.41 262.25H590.013L589.707 261.23C589.389 261.672 588.987 261.989 588.5 262.182C588.024 262.363 587.485 262.454 586.885 262.454ZM587.837 260.686C588.347 260.686 588.772 260.55 589.112 260.278C589.452 260.006 589.622 259.485 589.622 258.714V258.51C588.726 258.589 588.007 258.714 587.463 258.884C586.919 259.043 586.647 259.343 586.647 259.785C586.647 260.057 586.76 260.278 586.987 260.448C587.213 260.607 587.497 260.686 587.837 260.686ZM597.842 262.454C596.913 262.454 596.125 262.267 595.479 261.893C594.844 261.519 594.357 260.998 594.017 260.329C593.688 259.649 593.524 258.867 593.524 257.983C593.524 257.099 593.705 256.328 594.068 255.671C594.431 255.002 594.935 254.487 595.581 254.124C596.238 253.761 596.992 253.58 597.842 253.58C598.329 253.58 598.811 253.648 599.287 253.784C599.774 253.92 600.222 254.152 600.63 254.481C601.049 254.798 601.389 255.235 601.65 255.79L599.491 256.572C599.355 256.209 599.151 255.954 598.879 255.807C598.618 255.66 598.324 255.586 597.995 255.586C597.689 255.586 597.394 255.665 597.111 255.824C596.828 255.971 596.595 256.221 596.414 256.572C596.244 256.923 596.159 257.399 596.159 258C596.159 258.612 596.25 259.099 596.431 259.462C596.612 259.813 596.839 260.068 597.111 260.227C597.394 260.374 597.689 260.448 597.995 260.448C598.358 260.448 598.664 260.38 598.913 260.244C599.162 260.097 599.361 259.898 599.508 259.649L601.616 260.414C601.333 260.924 600.981 261.332 600.562 261.638C600.143 261.933 599.695 262.142 599.219 262.267C598.754 262.392 598.295 262.454 597.842 262.454ZM597.451 265.429C597.179 265.429 596.913 265.406 596.652 265.361C596.403 265.327 596.17 265.276 595.955 265.208L596.227 264.358C596.318 264.403 596.459 264.449 596.652 264.494C596.856 264.551 597.06 264.579 597.264 264.579C597.468 264.579 597.644 264.545 597.791 264.477C597.938 264.409 598.012 264.29 598.012 264.12C598.012 263.984 597.955 263.876 597.842 263.797C597.729 263.718 597.576 263.678 597.383 263.678C597.247 263.678 597.094 263.706 596.924 263.763C596.822 263.797 596.726 263.786 596.635 263.729C596.556 263.684 596.499 263.61 596.465 263.508C596.442 263.417 596.454 263.332 596.499 263.253L597.383 261.825L598.08 262.25L597.57 263.066C597.729 263.032 597.921 263.015 598.148 263.015C598.363 263.015 598.584 263.049 598.811 263.117C599.038 263.185 599.225 263.293 599.372 263.44C599.531 263.599 599.61 263.808 599.61 264.069C599.61 264.398 599.502 264.658 599.287 264.851C599.083 265.055 598.817 265.202 598.488 265.293C598.159 265.384 597.814 265.429 597.451 265.429ZM605.413 262.454C604.88 262.454 604.393 262.352 603.951 262.148C603.509 261.944 603.158 261.661 602.897 261.298C602.636 260.924 602.506 260.482 602.506 259.972C602.506 259.281 602.744 258.731 603.22 258.323C603.707 257.915 604.37 257.609 605.209 257.405C606.048 257.201 607.011 257.059 608.099 256.98C608.099 256.379 608.003 255.954 607.81 255.705C607.617 255.456 607.243 255.331 606.688 255.331C606.337 255.331 606.025 255.416 605.753 255.586C605.492 255.745 605.317 255.994 605.226 256.334L603.05 255.552C603.333 254.985 603.804 254.515 604.461 254.141C605.13 253.767 605.946 253.58 606.909 253.58C608.11 253.58 609.034 253.846 609.68 254.379C610.326 254.912 610.649 255.818 610.649 257.099V258.952C610.649 259.315 610.66 259.706 610.683 260.125C610.706 260.544 610.74 260.941 610.785 261.315C610.83 261.689 610.881 262.001 610.938 262.25H608.541L608.235 261.23C607.918 261.672 607.515 261.989 607.028 262.182C606.552 262.363 606.014 262.454 605.413 262.454ZM606.365 260.686C606.875 260.686 607.3 260.55 607.64 260.278C607.98 260.006 608.15 259.485 608.15 258.714V258.51C607.255 258.589 606.535 258.714 605.991 258.884C605.447 259.043 605.175 259.343 605.175 259.785C605.175 260.057 605.288 260.278 605.515 260.448C605.742 260.607 606.025 260.686 606.365 260.686ZM608.184 252.577C607.742 252.577 607.34 252.486 606.977 252.305C606.762 252.192 606.592 252.101 606.467 252.033C606.342 251.965 606.201 251.931 606.042 251.931C605.861 251.931 605.702 251.982 605.566 252.084C605.43 252.175 605.345 252.311 605.311 252.492H603.798C603.9 251.869 604.127 251.387 604.478 251.047C604.841 250.707 605.322 250.537 605.923 250.537C606.286 250.537 606.575 250.594 606.79 250.707C607.017 250.82 607.221 250.939 607.402 251.064C607.595 251.177 607.804 251.234 608.031 251.234C608.19 251.234 608.32 251.206 608.422 251.149C608.535 251.081 608.649 250.99 608.762 250.877C608.966 250.65 609.17 250.537 609.374 250.537C609.589 250.537 609.759 250.605 609.884 250.741C610.02 250.866 610.088 251.024 610.088 251.217C610.088 251.432 609.992 251.648 609.799 251.863C609.618 252.067 609.38 252.237 609.085 252.373C608.802 252.509 608.501 252.577 608.184 252.577ZM616.391 262.454C615.609 262.454 614.878 262.295 614.198 261.978C613.518 261.661 612.968 261.173 612.549 260.516C612.129 259.847 611.92 259.009 611.92 258C611.92 256.98 612.129 256.147 612.549 255.501C612.968 254.844 613.518 254.362 614.198 254.056C614.878 253.739 615.609 253.58 616.391 253.58C617.161 253.58 617.887 253.739 618.567 254.056C619.247 254.362 619.796 254.844 620.216 255.501C620.635 256.147 620.845 256.98 620.845 258C620.845 259.009 620.635 259.847 620.216 260.516C619.796 261.173 619.247 261.661 618.567 261.978C617.887 262.295 617.161 262.454 616.391 262.454ZM616.391 260.448C616.912 260.448 617.343 260.261 617.683 259.887C618.034 259.513 618.21 258.884 618.21 258C618.21 257.105 618.028 256.481 617.666 256.13C617.314 255.767 616.889 255.586 616.391 255.586C615.881 255.586 615.444 255.767 615.082 256.13C614.73 256.481 614.555 257.105 614.555 258C614.555 258.884 614.73 259.513 615.082 259.887C615.433 260.261 615.869 260.448 616.391 260.448ZM623.481 262.454C623.027 262.454 622.636 262.29 622.308 261.961C621.979 261.632 621.815 261.241 621.815 260.788C621.815 260.323 621.979 259.932 622.308 259.615C622.636 259.298 623.027 259.139 623.481 259.139C623.934 259.139 624.319 259.298 624.637 259.615C624.965 259.932 625.13 260.323 625.13 260.788C625.13 261.241 624.965 261.632 624.637 261.961C624.319 262.29 623.934 262.454 623.481 262.454Z" fill="#262626"/>
<rect x="689.5" y="139" width="179" height="45" fill="#A5ADBB"/>
<path d="M958.5 161.5L868.5 213.462L868.5 109.538L958.5 161.5Z" fill="#A5ADBB"/>
<rect width="323" height="323" transform="translate(990.5)" fill="#426D6F"/>
<path d="M1060.08 150.5V125.784H1069.58C1071.73 125.784 1073.64 126.006 1075.32 126.45C1077.02 126.894 1078.35 127.696 1079.32 128.855C1080.3 130.014 1080.8 131.679 1080.8 133.85C1080.8 135.996 1080.3 137.661 1079.32 138.845C1078.35 140.004 1077.02 140.806 1075.32 141.25C1073.64 141.694 1071.73 141.916 1069.58 141.916H1065.92V150.5H1060.08ZM1065.92 137.069H1069.77C1070.68 137.069 1071.5 136.983 1072.21 136.81C1072.95 136.637 1073.53 136.317 1073.95 135.848C1074.39 135.379 1074.62 134.713 1074.62 133.85C1074.62 132.987 1074.39 132.333 1073.95 131.889C1073.53 131.42 1072.95 131.112 1072.21 130.964C1071.5 130.791 1070.68 130.705 1069.77 130.705H1065.92V137.069ZM1092.81 150.944C1090.84 150.944 1089.09 150.562 1087.56 149.797C1086.05 149.008 1084.87 147.885 1084 146.43C1083.17 144.975 1082.75 143.236 1082.75 141.213C1082.75 139.264 1083.19 137.575 1084.08 136.144C1084.99 134.713 1086.19 133.603 1087.67 132.814C1089.17 132.025 1090.81 131.63 1092.59 131.63C1094.61 131.63 1096.34 132.111 1097.77 133.073C1099.22 134.01 1100.32 135.318 1101.06 136.995C1101.8 138.648 1102.11 140.559 1101.99 142.73H1088.41C1088.51 144.013 1088.97 144.975 1089.81 145.616C1090.68 146.257 1091.63 146.578 1092.66 146.578C1093.53 146.578 1094.27 146.455 1094.88 146.208C1095.52 145.937 1096.02 145.604 1096.36 145.209L1100.84 146.837C1099.88 148.243 1098.67 149.279 1097.21 149.945C1095.78 150.611 1094.32 150.944 1092.81 150.944ZM1088.41 139.4H1096.77C1096.74 138.216 1096.34 137.328 1095.55 136.736C1094.76 136.119 1093.82 135.811 1092.74 135.811C1091.68 135.811 1090.73 136.095 1089.89 136.662C1089.07 137.229 1088.58 138.142 1088.41 139.4ZM1104.92 150.5V132.148H1109.84L1110.54 134.59C1110.96 133.899 1111.65 133.233 1112.61 132.592C1113.6 131.951 1114.79 131.63 1116.2 131.63C1118.57 131.63 1120.18 132.296 1121.05 133.628C1121.94 134.935 1122.38 136.835 1122.38 139.326V150.5H1116.76V140.732C1116.76 139.869 1116.71 139.079 1116.61 138.364C1116.51 137.649 1116.26 137.081 1115.87 136.662C1115.5 136.218 1114.86 135.996 1113.94 135.996C1112.76 135.996 1111.9 136.428 1111.35 137.291C1110.81 138.13 1110.54 139.388 1110.54 141.065V150.5H1104.92ZM1134.26 150.944C1132.11 150.944 1130.25 150.549 1128.67 149.76C1127.12 148.971 1125.98 147.811 1125.27 146.282L1130.04 144.543C1130.31 145.308 1130.83 145.887 1131.59 146.282C1132.38 146.652 1133.31 146.837 1134.37 146.837C1135.28 146.837 1136.08 146.701 1136.77 146.43C1137.49 146.134 1137.85 145.702 1137.85 145.135C1137.85 144.74 1137.64 144.407 1137.22 144.136C1136.8 143.865 1136.06 143.643 1135 143.47L1131.7 142.915C1129.93 142.619 1128.49 142.015 1127.38 141.102C1126.27 140.189 1125.71 138.968 1125.71 137.439C1125.71 136.156 1126.09 135.083 1126.86 134.22C1127.65 133.357 1128.68 132.715 1129.97 132.296C1131.25 131.852 1132.64 131.63 1134.15 131.63C1135.9 131.63 1137.51 131.951 1138.99 132.592C1140.5 133.209 1141.6 134.245 1142.29 135.7L1137.55 137.439C1137.38 136.773 1136.97 136.329 1136.33 136.107C1135.69 135.86 1134.95 135.737 1134.11 135.737C1132.09 135.737 1131.08 136.23 1131.08 137.217C1131.08 137.587 1131.25 137.895 1131.59 138.142C1131.94 138.364 1132.52 138.549 1133.33 138.697L1136.74 139.326C1138.96 139.721 1140.6 140.3 1141.66 141.065C1142.72 141.83 1143.25 142.977 1143.25 144.506C1143.25 145.937 1142.84 147.133 1142.03 148.095C1141.21 149.057 1140.13 149.772 1138.77 150.241C1137.41 150.71 1135.91 150.944 1134.26 150.944ZM1151.72 150.944C1150.56 150.944 1149.5 150.722 1148.54 150.278C1147.57 149.834 1146.81 149.217 1146.24 148.428C1145.68 147.614 1145.39 146.652 1145.39 145.542C1145.39 144.037 1145.91 142.841 1146.95 141.953C1148.01 141.065 1149.45 140.399 1151.27 139.955C1153.1 139.511 1155.2 139.203 1157.56 139.03C1157.56 137.723 1157.36 136.798 1156.94 136.255C1156.52 135.712 1155.7 135.441 1154.49 135.441C1153.73 135.441 1153.05 135.626 1152.46 135.996C1151.89 136.341 1151.51 136.884 1151.31 137.624L1146.58 135.922C1147.19 134.689 1148.22 133.665 1149.65 132.851C1151.1 132.037 1152.88 131.63 1154.97 131.63C1157.59 131.63 1159.6 132.21 1161.01 133.369C1162.41 134.528 1163.11 136.502 1163.11 139.289V143.322C1163.11 144.111 1163.14 144.962 1163.19 145.875C1163.24 146.788 1163.31 147.651 1163.41 148.465C1163.51 149.279 1163.62 149.957 1163.74 150.5H1158.53L1157.86 148.28C1157.17 149.242 1156.29 149.933 1155.23 150.352C1154.2 150.747 1153.03 150.944 1151.72 150.944ZM1153.79 147.096C1154.9 147.096 1155.83 146.8 1156.57 146.208C1157.31 145.616 1157.68 144.481 1157.68 142.804V142.36C1155.73 142.533 1154.16 142.804 1152.98 143.174C1151.79 143.519 1151.2 144.173 1151.2 145.135C1151.2 145.727 1151.45 146.208 1151.94 146.578C1152.43 146.923 1153.05 147.096 1153.79 147.096ZM1167.06 150.5V132.148H1171.5L1172.49 135.515C1173.06 134.035 1173.84 132.999 1174.83 132.407C1175.81 131.815 1177.01 131.556 1178.41 131.63V137.254C1178.12 137.205 1177.86 137.18 1177.64 137.18C1177.42 137.155 1177.17 137.143 1176.9 137.143C1175.54 137.143 1174.49 137.464 1173.75 138.105C1173.04 138.746 1172.68 139.795 1172.68 141.25V150.5H1167.06ZM1202.28 150.944C1200.3 150.944 1198.55 150.562 1197.02 149.797C1195.52 149.008 1194.33 147.885 1193.47 146.43C1192.63 144.975 1192.21 143.236 1192.21 141.213C1192.21 139.264 1192.66 137.575 1193.54 136.144C1194.46 134.713 1195.65 133.603 1197.13 132.814C1198.64 132.025 1200.28 131.63 1202.05 131.63C1204.08 131.63 1205.8 132.111 1207.23 133.073C1208.69 134.01 1209.79 135.318 1210.53 136.995C1211.27 138.648 1211.57 140.559 1211.45 142.73H1197.87C1197.97 144.013 1198.44 144.975 1199.28 145.616C1200.14 146.257 1201.09 146.578 1202.13 146.578C1202.99 146.578 1203.73 146.455 1204.35 146.208C1204.99 145.937 1205.48 145.604 1205.83 145.209L1210.3 146.837C1209.34 148.243 1208.13 149.279 1206.68 149.945C1205.25 150.611 1203.78 150.944 1202.28 150.944ZM1197.87 139.4H1206.23C1206.21 138.216 1205.8 137.328 1205.01 136.736C1204.22 136.119 1203.29 135.811 1202.2 135.811C1201.14 135.811 1200.19 136.095 1199.35 136.662C1198.54 137.229 1198.04 138.142 1197.87 139.4ZM1214.38 150.5V132.148H1219.3L1220 134.59C1220.42 133.899 1221.11 133.233 1222.08 132.592C1223.04 131.951 1224.2 131.63 1225.55 131.63C1227.01 131.63 1228.17 131.889 1229.03 132.407C1229.92 132.925 1230.57 133.69 1230.99 134.701C1231.71 133.69 1232.61 132.925 1233.69 132.407C1234.8 131.889 1236 131.63 1237.28 131.63C1239.63 131.63 1241.24 132.296 1242.13 133.628C1243.02 134.935 1243.46 136.835 1243.46 139.326V150.5H1237.84V140.732C1237.84 139.869 1237.79 139.079 1237.69 138.364C1237.59 137.649 1237.34 137.081 1236.95 136.662C1236.56 136.218 1235.9 135.996 1234.99 135.996C1233.85 135.996 1233.03 136.403 1232.51 137.217C1231.99 138.006 1231.73 139.203 1231.73 140.806V150.5H1226.07V140.732C1226.07 139.869 1226.02 139.079 1225.92 138.364C1225.85 137.649 1225.62 137.081 1225.22 136.662C1224.85 136.218 1224.22 135.996 1223.33 135.996C1222.17 135.996 1221.32 136.415 1220.78 137.254C1220.26 138.093 1220 139.314 1220 140.917V150.5H1214.38ZM1104.16 196.944C1102.02 196.944 1100.15 196.549 1098.57 195.76C1097.02 194.971 1095.89 193.811 1095.17 192.282L1099.94 190.543C1100.21 191.308 1100.73 191.887 1101.5 192.282C1102.29 192.652 1103.21 192.837 1104.27 192.837C1105.19 192.837 1105.99 192.701 1106.68 192.43C1107.39 192.134 1107.75 191.702 1107.75 191.135C1107.75 190.74 1107.54 190.407 1107.12 190.136C1106.7 189.865 1105.96 189.643 1104.9 189.47L1101.61 188.915C1099.83 188.619 1098.39 188.015 1097.28 187.102C1096.17 186.189 1095.61 184.968 1095.61 183.439C1095.61 182.156 1096 181.083 1096.76 180.22C1097.55 179.357 1098.59 178.715 1099.87 178.296C1101.15 177.852 1102.55 177.63 1104.05 177.63C1105.8 177.63 1107.42 177.951 1108.9 178.592C1110.4 179.209 1111.5 180.245 1112.19 181.7L1107.45 183.439C1107.28 182.773 1106.87 182.329 1106.23 182.107C1105.59 181.86 1104.85 181.737 1104.01 181.737C1101.99 181.737 1100.98 182.23 1100.98 183.217C1100.98 183.587 1101.15 183.895 1101.5 184.142C1101.84 184.364 1102.42 184.549 1103.24 184.697L1106.64 185.326C1108.86 185.721 1110.5 186.3 1111.56 187.065C1112.62 187.83 1113.15 188.977 1113.15 190.506C1113.15 191.937 1112.75 193.133 1111.93 194.095C1111.12 195.057 1110.03 195.772 1108.68 196.241C1107.32 196.71 1105.81 196.944 1104.16 196.944ZM1125.36 196.944C1123.39 196.944 1121.64 196.562 1120.11 195.797C1118.6 195.008 1117.42 193.885 1116.55 192.43C1115.72 190.975 1115.3 189.236 1115.3 187.213C1115.3 185.264 1115.74 183.575 1116.63 182.144C1117.54 180.713 1118.74 179.603 1120.22 178.814C1121.72 178.025 1123.36 177.63 1125.14 177.63C1127.16 177.63 1128.89 178.111 1130.32 179.073C1131.77 180.01 1132.87 181.318 1133.61 182.995C1134.35 184.648 1134.66 186.559 1134.54 188.73H1120.96C1121.06 190.013 1121.52 190.975 1122.36 191.616C1123.23 192.257 1124.18 192.578 1125.21 192.578C1126.08 192.578 1126.82 192.455 1127.43 192.208C1128.07 191.937 1128.57 191.604 1128.91 191.209L1133.39 192.837C1132.43 194.243 1131.22 195.279 1129.76 195.945C1128.33 196.611 1126.86 196.944 1125.36 196.944ZM1120.96 185.4H1129.32C1129.29 184.216 1128.89 183.328 1128.1 182.736C1127.31 182.119 1126.37 181.811 1125.29 181.811C1124.23 181.811 1123.28 182.095 1122.44 182.662C1121.62 183.229 1121.13 184.142 1120.96 185.4ZM1137.47 202.457V178.148H1142.35L1143.09 180.664C1143.68 179.653 1144.51 178.9 1145.57 178.407C1146.65 177.889 1147.69 177.63 1148.68 177.63C1150.25 177.63 1151.65 178.025 1152.86 178.814C1154.09 179.603 1155.05 180.726 1155.74 182.181C1156.43 183.612 1156.78 185.326 1156.78 187.324C1156.78 189.322 1156.43 191.049 1155.74 192.504C1155.05 193.935 1154.09 195.032 1152.86 195.797C1151.65 196.562 1150.25 196.944 1148.68 196.944C1147.69 196.944 1146.65 196.685 1145.57 196.167C1144.51 195.649 1143.68 194.884 1143.09 193.873V202.457H1137.47ZM1146.9 192.578C1147.99 192.578 1148.92 192.134 1149.71 191.246C1150.53 190.358 1150.93 189.051 1150.93 187.324C1150.93 185.647 1150.53 184.339 1149.71 183.402C1148.92 182.465 1147.99 181.996 1146.9 181.996C1145.79 181.996 1144.83 182.391 1144.01 183.18C1143.22 183.969 1142.83 185.314 1142.83 187.213C1142.83 189.088 1143.22 190.457 1144.01 191.32C1144.83 192.159 1145.79 192.578 1146.9 192.578ZM1167.67 196.944C1165.53 196.944 1163.67 196.549 1162.09 195.76C1160.53 194.971 1159.4 193.811 1158.68 192.282L1163.46 190.543C1163.73 191.308 1164.25 191.887 1165.01 192.282C1165.8 192.652 1166.72 192.837 1167.79 192.837C1168.7 192.837 1169.5 192.701 1170.19 192.43C1170.91 192.134 1171.26 191.702 1171.26 191.135C1171.26 190.74 1171.05 190.407 1170.63 190.136C1170.21 189.865 1169.47 189.643 1168.41 189.47L1165.12 188.915C1163.35 188.619 1161.9 188.015 1160.79 187.102C1159.68 186.189 1159.13 184.968 1159.13 183.439C1159.13 182.156 1159.51 181.083 1160.27 180.22C1161.06 179.357 1162.1 178.715 1163.38 178.296C1164.66 177.852 1166.06 177.63 1167.56 177.63C1169.31 177.63 1170.93 177.951 1172.41 178.592C1173.91 179.209 1175.01 180.245 1175.7 181.7L1170.97 183.439C1170.79 182.773 1170.39 182.329 1169.75 182.107C1169.1 181.86 1168.36 181.737 1167.53 181.737C1165.5 181.737 1164.49 182.23 1164.49 183.217C1164.49 183.587 1164.66 183.895 1165.01 184.142C1165.36 184.364 1165.94 184.549 1166.75 184.697L1170.15 185.326C1172.37 185.721 1174.01 186.3 1175.07 187.065C1176.13 187.83 1176.67 188.977 1176.67 190.506C1176.67 191.937 1176.26 193.133 1175.44 194.095C1174.63 195.057 1173.54 195.772 1172.19 196.241C1170.83 196.71 1169.33 196.944 1167.67 196.944ZM1188.87 196.944C1186.9 196.944 1185.15 196.562 1183.62 195.797C1182.11 195.008 1180.93 193.885 1180.07 192.43C1179.23 190.975 1178.81 189.236 1178.81 187.213C1178.81 185.264 1179.25 183.575 1180.14 182.144C1181.05 180.713 1182.25 179.603 1183.73 178.814C1185.23 178.025 1186.87 177.63 1188.65 177.63C1190.67 177.63 1192.4 178.111 1193.83 179.073C1195.29 180.01 1196.38 181.318 1197.12 182.995C1197.86 184.648 1198.17 186.559 1198.05 188.73H1184.47C1184.57 190.013 1185.04 190.975 1185.88 191.616C1186.74 192.257 1187.69 192.578 1188.72 192.578C1189.59 192.578 1190.33 192.455 1190.94 192.208C1191.59 191.937 1192.08 191.604 1192.42 191.209L1196.9 192.837C1195.94 194.243 1194.73 195.279 1193.28 195.945C1191.85 196.611 1190.38 196.944 1188.87 196.944ZM1184.47 185.4H1192.83C1192.81 184.216 1192.4 183.328 1191.61 182.736C1190.82 182.119 1189.88 181.811 1188.8 181.811C1187.74 181.811 1186.79 182.095 1185.95 182.662C1185.14 183.229 1184.64 184.142 1184.47 185.4ZM1202.27 187.509L1200.76 178.185V171.784H1207.93V178.185L1206.38 187.509H1202.27ZM1204.38 196.944C1203.4 196.944 1202.54 196.586 1201.83 195.871C1201.11 195.156 1200.76 194.305 1200.76 193.318C1200.76 192.307 1201.11 191.456 1201.83 190.765C1202.54 190.074 1203.4 189.729 1204.38 189.729C1205.37 189.729 1206.21 190.074 1206.9 190.765C1207.61 191.456 1207.97 192.307 1207.97 193.318C1207.97 194.305 1207.61 195.156 1206.9 195.871C1206.21 196.586 1205.37 196.944 1204.38 196.944Z" fill="white"/>
</svg>
