<?xml version="1.0" encoding="UTF-8" standalone="no"?>
<svg
   width="1101"
   height="360"
   viewBox="0 0 1101 360"
   fill="none"
   version="1.1"
   id="svg58"
   sodipodi:docname="slide-7.svg"
   inkscape:version="1.1.2 (b8e25be833, 2022-02-05)"
   xmlns:inkscape="http://www.inkscape.org/namespaces/inkscape"
   xmlns:sodipodi="http://sodipodi.sourceforge.net/DTD/sodipodi-0.dtd"
   xmlns="http://www.w3.org/2000/svg"
   xmlns:svg="http://www.w3.org/2000/svg">
  <defs
     id="defs62" />
  <sodipodi:namedview
     id="namedview60"
     pagecolor="#505050"
     bordercolor="#eeeeee"
     borderopacity="1"
     inkscape:pageshadow="0"
     inkscape:pageopacity="0"
     inkscape:pagecheckerboard="0"
     showgrid="false"
     inkscape:zoom="0.28428701"
     inkscape:cx="490.70128"
     inkscape:cy="-47.48722"
     inkscape:window-width="1920"
     inkscape:window-height="991"
     inkscape:window-x="-9"
     inkscape:window-y="-9"
     inkscape:window-maximized="1"
     inkscape:current-layer="svg58" />
  <rect
     x="103.5"
     y="45"
     width="270"
     height="270"
     rx="135"
     fill="#DBE0E7"
     id="rect2" />
  <path
     d="M219.597 271.216C219.597 276.067 223.529 280 228.381 280C233.23 280 237.164 276.067 237.164 271.216V227.771C230.436 227.689 224.572 227.049 219.597 226.156V271.216Z"
     fill="#262626"
     id="path4" />
  <path
     d="M240.093 271.216C240.093 276.068 244.024 280 248.877 280C253.724 280 257.66 276.068 257.66 271.216V226.157C252.685 227.05 246.821 227.69 240.093 227.772V271.216Z"
     fill="#262626"
     id="path6" />
  <path
     d="M289.71 191.315C284.089 148.689 270.21 132.84 261.011 126.955C257.252 124.551 254.273 123.806 252.959 123.583C251.453 123.206 245.091 121.717 238.63 121.717C232.17 121.717 225.807 123.206 224.3 123.583C222.986 123.806 220.007 124.551 216.248 126.956C207.048 132.842 193.17 148.69 187.55 191.315C187.138 194.441 189.338 197.309 192.464 197.722C195.586 198.133 198.458 195.933 198.871 192.807C201.755 170.939 206.817 157.272 211.814 148.749C213.111 146.537 214.404 144.672 215.653 143.1L200.566 217.246C200.566 217.246 213.754 225.151 238.629 225.151C263.505 225.151 276.693 217.246 276.693 217.246L261.613 143.131C262.863 144.711 264.158 146.59 265.459 148.813C270.449 157.348 275.514 171.006 278.389 192.806C278.769 195.68 281.221 197.77 284.043 197.77C284.291 197.77 284.543 197.753 284.796 197.72C287.922 197.309 290.122 194.44 289.71 191.315ZM238.629 208.23C225.713 208.23 215.242 197.76 215.242 184.843C215.242 173.986 222.642 164.859 232.672 162.225C232.33 163 232.157 163.788 232.296 164.536C232.535 165.822 233.553 166.743 235.321 167.274C238.877 168.34 245.992 171.882 247.473 177.653C248.323 180.967 247.12 184.518 243.908 188.226L241.178 185.828C240.981 185.655 240.773 185.504 240.56 185.364L243.535 181.242C244.404 180.038 244.132 178.359 242.929 177.49C241.727 176.622 240.046 176.893 239.178 178.096L232.792 186.945C232.658 187.13 232.561 187.329 232.48 187.533C231.369 189.752 231.836 192.524 233.789 194.239L239.47 199.229C241.649 201.145 244.901 201.06 246.977 199.119C246.986 199.111 246.999 199.106 247.008 199.097L255.537 192.099C256.939 190.949 257.144 188.88 255.993 187.477C254.843 186.074 252.774 185.871 251.371 187.021L246.804 190.769L245.227 189.383C248.845 185.21 250.177 181.123 249.175 177.215C247.499 170.683 239.711 166.754 235.826 165.589C234.74 165.263 234.134 164.8 234.024 164.213C233.898 163.539 234.309 162.651 234.959 161.744C236.155 161.555 237.381 161.455 238.63 161.455C251.547 161.455 262.017 171.925 262.017 184.842C262.017 197.759 251.545 208.23 238.629 208.23Z"
     fill="#262626"
     id="path8" />
  <path
     d="M238.629 117.77C249.059 117.77 257.515 109.315 257.515 98.8852C257.515 88.4552 249.059 80 238.629 80C228.199 80 219.744 88.4552 219.744 98.8852C219.744 109.315 228.199 117.77 238.629 117.77Z"
     fill="#262626"
     id="path10" />
  <path
     d="M231.52 186.677C233.757 184.052 233.442 180.111 230.818 177.875C228.193 175.639 224.253 175.954 222.016 178.579C219.78 181.204 220.094 185.144 222.719 187.38C225.343 189.617 229.284 189.302 231.52 186.677Z"
     fill="#262626"
     id="path12" />
  <rect
     x="103.5"
     y="45"
     width="270"
     height="270"
     rx="135"
     stroke="#C56E53"
     stroke-width="10"
     id="rect18" />
  <rect
     x="415.5"
     y="45"
     width="270"
     height="270"
     rx="135"
     fill="#DBE0E7"
     id="rect20" />
  <path
     d="M562.215 140.003C562.215 127.554 552.215 117.555 539.767 117.555C527.318 117.555 517.318 127.554 517.318 140.003C517.318 152.452 527.318 162.452 539.767 162.452C552.215 162.452 562.215 152.452 562.215 140.003ZM610.173 111.024C609.561 102.045 605.683 91.6369 596.5 88.5757C595.071 88.3717 594.867 86.535 596.092 86.1268C598.337 85.7187 602.214 88.9839 603.439 90.6165C608.541 96.1266 610.377 103.677 610.173 111.024ZM615.683 98.9837C614.255 88.3717 604.459 80.2086 593.847 80.0045C583.847 79.8004 574.052 86.535 571.399 96.3307C568.746 106.535 572.419 117.147 577.521 126.126C580.582 131.024 585.684 138.575 591.806 139.595C591.602 140.615 590.99 141.432 590.582 142.452C590.378 142.86 590.582 143.064 590.99 142.86C591.194 142.86 591.602 142.86 591.806 142.86C591.806 143.268 592.01 143.677 592.01 144.085C592.827 147.146 593.439 150.207 588.133 164.492C584.051 175.513 584.664 182.655 586.296 188.982L575.888 177.145C571.399 172.247 563.44 168.574 556.705 168.574H525.277C523.236 168.574 519.563 166.941 518.134 165.309L498.951 142.86C496.094 139.595 491.196 139.187 487.727 142.044C484.462 144.901 484.054 150.003 486.911 153.268L506.094 175.717C508.747 178.778 512.624 181.227 516.91 182.859L505.278 224.287C504.665 226.736 505.073 229.185 506.502 231.226C507.931 233.266 510.379 234.287 512.828 234.287H521.808L515.685 270.612C514.869 274.898 517.93 278.98 522.216 279.796C522.624 279.796 523.032 280 523.644 280C527.522 280 530.787 277.347 531.399 273.47L538.134 234.491H542.828L549.562 273.47C550.174 277.347 553.644 280 557.317 280C557.725 280 558.134 280 558.746 279.796C563.031 278.98 565.888 274.898 565.276 270.612L559.154 234.287H568.133C570.582 234.287 573.031 233.062 574.46 231.226C575.888 229.185 576.5 226.736 575.684 224.287L565.684 189.186L583.847 209.798C585.48 211.634 587.521 212.451 589.765 212.451C591.602 212.451 593.439 211.838 595.071 210.41C598.337 207.553 598.541 202.451 595.684 199.186L591.806 194.9C588.745 186.737 586.092 179.798 591.194 165.717C596.704 150.411 595.888 146.942 595.071 143.472C595.071 143.472 595.071 143.472 595.071 143.268H595.276C595.888 143.268 596.092 143.268 595.888 142.656C595.48 141.636 594.867 140.819 594.663 139.799C598.949 138.983 602.01 135.718 604.663 132.656C612.214 123.269 617.52 111.228 615.683 98.9837Z"
     fill="#262626"
     id="path22" />
  <rect
     x="415.5"
     y="45"
     width="270"
     height="270"
     rx="135"
     stroke="#C56E53"
     stroke-width="10"
     id="rect28" />
  <rect
     x="727.5"
     y="45"
     width="270"
     height="270"
     rx="135"
     fill="#DBE0E7"
     id="rect30" />
  <path
     d="M915.778 206.245C914.073 204.994 911.943 204.643 909.928 205.279C904.115 207.112 897.898 207.38 891.95 206.064C890.517 205.746 889.043 206.092 887.9 207.009C887.578 207.269 887.297 207.566 887.058 207.888V200.354C889.63 201.089 892.284 201.469 894.988 201.469C898.241 201.469 900.887 198.823 900.887 195.57V181.513C900.887 179.209 899.773 177.021 897.907 175.659C897.263 175.189 896.359 175.333 895.888 175.977C895.417 176.621 895.562 177.525 896.206 177.996C897.329 178.813 897.997 180.126 897.997 181.513V195.57C897.997 197.229 896.648 198.579 894.988 198.579C891.615 198.579 888.325 197.935 885.2 196.664L883.99 196.172C877.047 193.349 869.727 191.916 862.231 191.916C854.734 191.916 847.414 193.349 840.471 196.172L839.261 196.664C836.136 197.935 832.846 198.579 829.473 198.579C827.814 198.579 826.464 197.229 826.464 195.57V181.513C826.464 179.114 828.412 177.166 830.811 177.166C831.265 177.166 831.719 177.133 832.165 177.079V186.397C832.165 187.193 832.813 187.842 833.61 187.842C834.406 187.842 835.054 187.193 835.054 186.397V176.344C835.616 176.122 836.165 175.857 836.689 175.548L843.98 171.213C849.499 167.935 855.811 166.201 862.231 166.201C868.65 166.201 874.962 167.935 880.481 171.213L887.759 175.535C887.768 175.539 887.792 175.556 887.801 175.56C888.804 176.155 889.402 177.162 889.402 178.26L889.407 186.393C889.407 187.189 890.055 187.837 890.851 187.837C891.648 187.837 892.296 187.189 892.296 186.393L892.292 178.26C892.292 176.13 891.161 174.19 889.25 173.063L887.058 171.758V158.692C889.63 159.427 892.284 159.807 894.988 159.807C898.241 159.807 900.887 157.161 900.887 153.908V139.851C900.887 135.859 897.642 132.614 893.65 132.614C892.899 132.614 892.156 132.515 891.434 132.321C891.326 132.276 891.215 132.243 891.095 132.222C890.451 132.024 889.832 131.751 889.246 131.405L887.054 130.1V117.034C889.625 117.769 892.28 118.149 894.984 118.149C898.237 118.149 900.883 115.503 900.883 112.25V98.1972C900.883 94.2052 897.638 90.9604 893.646 90.9604C892.895 90.9604 892.152 90.8614 891.429 90.6673C891.322 90.6219 891.211 90.5889 891.091 90.5682C890.447 90.3701 889.828 90.0976 889.241 89.7509L881.947 85.4162C875.99 81.8742 869.17 80 862.231 80C855.291 80 848.471 81.8742 842.502 85.4204L835.211 89.755C834.629 90.1018 834.006 90.3701 833.362 90.5724C833.242 90.593 833.131 90.626 833.023 90.6715C832.305 90.8614 831.558 90.9646 830.806 90.9646C826.815 90.9646 823.57 94.2093 823.57 98.2013C823.57 98.9981 824.218 99.6462 825.015 99.6462C825.811 99.6462 826.459 98.9981 826.459 98.2013C826.459 95.8028 828.408 93.8543 830.806 93.8543C831.261 93.8543 831.715 93.8213 832.161 93.7676V103.085C832.161 103.882 832.809 104.53 833.605 104.53C834.402 104.53 835.05 103.882 835.05 103.085V93.0328C835.612 92.8099 836.161 92.5457 836.685 92.2361L843.976 87.9014C849.499 84.6236 855.811 82.8898 862.231 82.8898C868.65 82.8898 874.962 84.6236 880.481 87.9014L887.776 92.2361C888.3 92.5457 888.845 92.8099 889.411 93.0328V103.085C889.411 103.882 890.059 104.53 890.856 104.53C891.652 104.53 892.3 103.882 892.3 103.085V93.7676C892.75 93.8213 893.2 93.8543 893.655 93.8543C896.053 93.8543 898.002 95.8028 898.002 98.2013V112.258C898.002 113.917 896.652 115.267 894.992 115.267C891.619 115.267 888.329 114.623 885.204 113.352L883.995 112.861C877.051 110.037 869.732 108.604 862.235 108.604C854.738 108.604 847.418 110.037 840.475 112.861L839.265 113.352C836.144 114.623 832.85 115.267 829.477 115.267C827.818 115.267 826.468 113.917 826.468 112.258V107.292C826.468 106.495 825.82 105.847 825.023 105.847C824.226 105.847 823.578 106.495 823.578 107.292V112.254C823.578 115.507 826.224 118.153 829.477 118.153C832.177 118.153 834.836 117.773 837.408 117.038V130.104L835.215 131.409C834.633 131.756 834.01 132.024 833.366 132.226C833.246 132.247 833.135 132.28 833.027 132.325C832.309 132.515 831.562 132.618 830.811 132.618C826.819 132.618 823.574 135.863 823.574 139.855V153.912C823.574 157.165 826.22 159.811 829.473 159.811C832.173 159.811 834.832 159.431 837.403 158.696V171.762L835.211 173.067C834.629 173.413 834.006 173.686 833.362 173.884C833.246 173.905 833.131 173.938 833.023 173.983C832.305 174.173 831.558 174.276 830.806 174.276C826.815 174.276 823.57 177.521 823.57 181.513V195.57C823.57 198.823 826.216 201.469 829.469 201.469C832.169 201.469 834.827 201.089 837.399 200.354V207.888C837.16 207.566 836.879 207.269 836.557 207.009C835.414 206.092 833.94 205.75 832.507 206.064C826.559 207.38 820.341 207.108 814.529 205.279C812.514 204.643 810.38 204.998 808.679 206.245C806.974 207.496 806 209.424 806 211.538V220.95C806 229.747 810.454 237.781 817.918 242.437C823.446 245.888 828.371 249.864 832.561 254.261C835.323 257.159 838.332 259.924 841.507 262.484C842.126 262.983 843.038 262.889 843.538 262.265C844.037 261.646 843.942 260.734 843.319 260.234C840.244 257.753 837.329 255.074 834.654 252.267C830.299 247.697 825.184 243.564 819.45 239.989C812.836 235.861 808.89 228.744 808.89 220.95V211.538C808.89 210.357 809.435 209.275 810.388 208.578C811.342 207.88 812.535 207.682 813.662 208.037C819.958 210.018 826.691 210.316 833.135 208.887C833.705 208.763 834.295 208.9 834.749 209.263C835.203 209.63 835.467 210.175 835.467 210.761C835.467 212.665 836.413 214.436 837.998 215.488C839.583 216.541 841.577 216.735 843.336 216.004L848.88 213.692C853.132 211.917 857.623 211.017 862.231 211.017C866.838 211.017 871.329 211.917 875.581 213.692L881.121 216.004C882.88 216.739 884.874 216.545 886.459 215.488C888.044 214.431 888.99 212.665 888.99 210.761C888.99 210.175 889.25 209.63 889.708 209.267C890.166 208.904 890.752 208.763 891.326 208.891C897.77 210.32 904.504 210.022 910.799 208.041C911.926 207.686 913.119 207.884 914.073 208.582C915.026 209.279 915.571 210.361 915.571 211.542V220.38C915.571 228.533 911.443 235.981 904.524 240.299L903.913 240.679C898.91 243.8 894.162 247.701 889.807 252.271C885.216 257.088 879.949 261.493 874.157 265.365C872.514 266.464 871.536 268.301 871.536 270.278C871.536 272.8 870.029 275.054 867.7 276.016C864.175 277.478 860.29 277.478 856.765 276.016C854.436 275.05 852.93 272.8 852.93 270.278C852.93 268.301 851.947 266.464 850.308 265.365C849.644 264.924 848.748 265.101 848.306 265.762C847.864 266.422 848.042 267.322 848.702 267.764C849.54 268.325 850.044 269.262 850.044 270.274C850.044 273.969 852.248 277.271 855.663 278.683C857.78 279.562 860.01 280 862.235 280C864.46 280 866.689 279.562 868.807 278.683C872.221 277.271 874.425 273.969 874.425 270.274C874.425 269.262 874.925 268.325 875.767 267.764C881.736 263.772 887.165 259.231 891.9 254.261C896.09 249.864 900.648 246.12 905.445 243.123L906.056 242.743C913.825 237.892 918.465 229.532 918.465 220.372V211.533C918.461 209.424 917.483 207.492 915.778 206.245ZM826.464 153.912V139.855C826.464 137.457 828.412 135.508 830.811 135.508C831.265 135.508 831.719 135.475 832.165 135.421V144.739C832.165 145.536 832.813 146.184 833.61 146.184C834.406 146.184 835.054 145.536 835.054 144.739V134.687C835.616 134.464 836.165 134.199 836.689 133.89L843.98 129.555C849.499 126.277 855.811 124.544 862.231 124.544C866.305 124.544 870.334 125.245 874.149 126.591L869.1 133.275L862.445 130.216C861.781 129.91 860.996 130.15 860.612 130.773L857.702 135.5C857.285 136.181 857.495 137.069 858.177 137.49C858.412 137.634 858.676 137.704 858.932 137.704C859.419 137.704 859.89 137.461 860.162 137.015L862.4 133.378L868.51 136.185L871.734 142.212C871.99 142.691 872.485 142.976 873.009 142.976C873.15 142.976 873.294 142.955 873.435 142.914L878.76 141.283C879.524 141.048 879.953 140.243 879.718 139.479C879.482 138.716 878.677 138.286 877.914 138.522L873.728 139.806L871.271 135.215L876.935 127.714C878.149 128.263 879.338 128.874 880.49 129.559L887.784 133.894C888.309 134.204 888.853 134.468 889.419 134.691V144.743C889.419 145.54 890.067 146.188 890.864 146.188C891.661 146.188 892.309 145.54 892.309 144.743V135.426C892.759 135.479 893.209 135.512 893.663 135.512C896.061 135.512 898.01 137.461 898.01 139.859V153.916C898.01 155.575 896.66 156.925 895 156.925C891.628 156.925 888.337 156.281 885.212 155.01L884.003 154.519C877.059 151.695 869.74 150.262 862.243 150.262C854.746 150.262 847.427 151.695 840.483 154.519L839.273 155.01C836.148 156.281 832.858 156.925 829.485 156.925C827.814 156.921 826.464 155.571 826.464 153.912Z"
     fill="#262626"
     id="path32" />
  <path
     d="M921.162 125.315H899.443C898.646 125.315 897.998 125.964 897.998 126.76C897.998 127.557 898.646 128.205 899.443 128.205H921.162C921.958 128.205 922.606 127.557 922.606 126.76C922.606 125.964 921.958 125.315 921.162 125.315Z"
     fill="#262626"
     id="path34" />
  <path
     d="M903.369 118.632C903.612 118.632 903.864 118.57 904.091 118.438L917.355 110.78C918.045 110.38 918.284 109.496 917.884 108.807C917.483 108.117 916.6 107.878 915.91 108.278L902.646 115.936C901.957 116.337 901.718 117.22 902.118 117.909C902.382 118.372 902.869 118.632 903.369 118.632Z"
     fill="#262626"
     id="path36" />
  <path
     d="M917.355 142.745L904.091 135.087C903.402 134.691 902.518 134.926 902.118 135.615C901.718 136.305 901.957 137.188 902.646 137.589L915.91 145.247C916.137 145.379 916.385 145.441 916.633 145.441C917.132 145.441 917.62 145.181 917.884 144.718C918.28 144.029 918.045 143.145 917.355 142.745Z"
     fill="#262626"
     id="path38" />
  <path
     d="M824.999 212.607L824.544 212.681C821.192 213.226 817.72 212.933 814.505 211.827C813.559 211.5 812.511 211.653 811.702 212.235C810.888 212.813 810.405 213.759 810.405 214.753V225.351C810.405 229.462 812.379 233.372 815.685 235.812L823.657 241.694C824.202 242.099 824.846 242.301 825.494 242.301C825.969 242.301 826.448 242.19 826.893 241.967C827.942 241.438 828.594 240.377 828.594 239.201V215.653C828.594 214.745 828.198 213.882 827.504 213.296C826.811 212.71 825.898 212.462 824.999 212.607ZM825.704 226.523C823.711 222.382 819.818 219.282 815.037 218.448C814.41 218.337 813.807 218.452 813.291 218.725V214.758C813.291 214.687 813.32 214.63 813.378 214.588C813.415 214.564 813.452 214.547 813.493 214.547C813.518 214.547 813.539 214.551 813.563 214.559C817.225 215.819 821.184 216.153 825.007 215.534L825.461 215.459C825.523 215.447 825.581 215.463 825.626 215.505C825.676 215.546 825.7 215.6 825.7 215.662V226.523H825.704Z"
     fill="#262626"
     id="path40" />
  <path
     d="M890.967 242.305C891.615 242.305 892.259 242.099 892.804 241.698L900.776 235.816C904.083 233.376 906.056 229.462 906.056 225.355V214.758C906.056 213.759 905.573 212.817 904.76 212.239C903.946 211.657 902.898 211.509 901.957 211.831C898.745 212.937 895.273 213.23 891.917 212.685L891.463 212.611C890.563 212.466 889.654 212.718 888.961 213.309C888.267 213.899 887.871 214.758 887.871 215.666V239.213C887.871 240.39 888.523 241.447 889.572 241.979C890.014 242.198 890.493 242.305 890.967 242.305ZM890.757 215.662C890.757 215.6 890.781 215.546 890.831 215.505C890.868 215.472 890.914 215.455 890.963 215.455C890.976 215.455 890.988 215.455 891 215.459L891.454 215.534C895.277 216.157 899.232 215.819 902.898 214.559C902.964 214.539 903.026 214.547 903.084 214.588C903.141 214.63 903.17 214.687 903.17 214.758V218.725C902.658 218.452 902.052 218.341 901.424 218.448C896.648 219.286 892.751 222.382 890.757 226.523V215.662Z"
     fill="#262626"
     id="path42" />
  <path
     d="M873.05 232.001C873.847 232.001 874.495 231.353 874.495 230.556V224.901C874.495 224.104 873.847 223.456 873.05 223.456C872.254 223.456 871.605 224.104 871.605 224.901V230.556C871.605 231.353 872.254 232.001 873.05 232.001Z"
     fill="#262626"
     id="path44" />
  <path
     d="M871.605 249.187C871.605 249.984 872.254 250.632 873.05 250.632C873.847 250.632 874.495 249.984 874.495 249.187V243.531C874.495 242.735 873.847 242.086 873.05 242.086C872.254 242.086 871.605 242.735 871.605 243.531V249.187Z"
     fill="#262626"
     id="path46" />
  <path
     d="M843.411 232.001C844.207 232.001 844.856 231.353 844.856 230.556V224.901C844.856 224.104 844.207 223.456 843.411 223.456C842.614 223.456 841.966 224.104 841.966 224.901V230.556C841.966 231.353 842.614 232.001 843.411 232.001Z"
     fill="#262626"
     id="path48" />
  <path
     d="M844.856 249.187V243.531C844.856 242.735 844.207 242.086 843.411 242.086C842.614 242.086 841.966 242.735 841.966 243.531V249.187C841.966 249.984 842.614 250.632 843.411 250.632C844.207 250.632 844.856 249.988 844.856 249.187Z"
     fill="#262626"
     id="path50" />
  <rect
     x="727.5"
     y="45"
     width="270"
     height="270"
     rx="135"
     stroke="#EEC174"
     stroke-width="10"
     id="rect56" />
  <circle
     cx="951.5"
     cy="75"
     r="42"
     fill="#EEC174"
     id="circle52" />
  <path
     d="M948 57H956V79H948V57ZM948 93V85H956V93H948Z"
     fill="black"
     id="path54" />
  <circle
     cx="639.5"
     cy="75"
     r="42"
     fill="#C56E53"
     id="circle24" />
  <path
     d="M656 64.82L650.18 59L640 69.18L629.82 59L624 64.82L634.18 75L624 85.18L629.82 91L640 80.82L650.18 91L656 85.18L645.82 75L656 64.82Z"
     fill="#262626"
     id="path26" />
  <circle
     cx="327.5"
     cy="75"
     r="42"
     fill="#C56E53"
     id="circle14" />
  <path
     d="M344 64.82L338.18 59L328 69.18L317.82 59L312 64.82L322.18 75L312 85.18L317.82 91L328 80.82L338.18 91L344 85.18L333.82 75L344 64.82Z"
     fill="#262626"
     id="path16" />
</svg>
